<svg xmlns="http://www.w3.org/2000/svg" xmlns:xlink="http://www.w3.org/1999/xlink" version="1.1" width="328.268" height="192.976" viewBox="0 0 328.268 192.976">
<defs>
<clipPath id="clip_0">
<path transform="matrix(1,0,0,-1,-18.364,45.031999)" d="M36.9864 0H332.87773V44.83246H36.9864Z"/>
</clipPath>
<clipPath id="clip_1">
<path transform="matrix(1,0,0,-1,-18.364,89.86299)" d="M36.9864 0H332.87773V44.83246H36.9864Z"/>
</clipPath>
<clipPath id="clip_2">
<path transform="matrix(1,0,0,-1,-18.364,134.69499)" d="M36.9864 0H332.87773V44.83246H36.9864Z"/>
</clipPath>
<clipPath id="clip_3">
<path transform="matrix(1,0,0,-1,-18.364,179.527)" d="M36.9864 0H332.87773V44.83246H36.9864Z"/>
</clipPath>
</defs>
<path transform="matrix(1,0,0,-1,-18.364,45.031999)" stroke-width=".09962" stroke-linecap="butt" stroke-miterlimit="10" stroke-linejoin="miter" fill="none" stroke="#f5f5f5" d="M43.15079 0V44.83246M49.3152 0V44.83246M55.4796 0V44.83246M61.644 0V44.83246M67.80838 0V44.83246M80.1372 0V44.83246M86.3016 0V44.83246M92.466 0V44.83246M98.63042 0V44.83246M104.7948 0V44.83246M117.12363 0V44.83246M123.28802 0V44.83246M129.45243 0V44.83246M135.61682 0V44.83246M141.78122 0V44.83246M154.11003 0V44.83246M160.27443 0V44.83246M166.43885 0V44.83246M172.60324 0V44.83246M178.76763 0V44.83246M191.09645 0V44.83246M197.26085 0V44.83246M203.42525 0V44.83246M209.58966 0V44.83246M215.75405 0V44.83246M228.08286 0V44.83246M234.24727 0V44.83246M240.41167 0V44.83246M246.57607 0V44.83246M252.74045 0V44.83246M265.06929 0V44.83246M271.23368 0V44.83246M277.39808 0V44.83246M283.56248 0V44.83246M289.72688 0V44.83246M302.0557 0V44.83246M308.2201 0V44.83246M314.3845 0V44.83246M320.5489 0V44.83246M326.7133 0V44.83246"/>
<path transform="matrix(1,0,0,-1,-18.364,45.031999)" stroke-width=".19925" stroke-linecap="butt" stroke-miterlimit="10" stroke-linejoin="miter" fill="none" stroke="#cbcbcb" d="M36.9864 0V44.83246M73.97282 0V44.83246M110.95923 0V44.83246M147.94565 0V44.83246M184.93206 0V44.83246M221.91847 0V44.83246M258.90489 0V44.83246M295.8913 0V44.83246M332.87773 0V44.83246"/>
<path transform="matrix(1,0,0,-1,-18.364,45.031999)" stroke-width=".09962" stroke-linecap="butt" stroke-miterlimit="10" stroke-linejoin="miter" fill="none" stroke="#f5f5f5" d="M36.9864 0H332.87773M36.9864 14.17691H332.87773M36.9864 20.04955H332.87773M36.9864 24.55565H332.87773M36.9864 28.35425H332.87773M36.9864 31.70102H332.87773M36.9864 34.72675H332.87773M36.9864 37.50948H332.87773M36.9864 40.09903H332.87773M36.9864 42.53165H332.87773"/>
<path transform="matrix(1,0,0,-1,-18.364,45.031999)" stroke-width=".19925" stroke-linecap="butt" stroke-miterlimit="10" stroke-linejoin="miter" fill="none" stroke="#cbcbcb" d="M36.9864 14.17691H332.87773M36.9864 31.70102H332.87773"/>
<path transform="matrix(1,0,0,-1,-18.364,45.031999)" stroke-width=".19925" stroke-linecap="butt" stroke-miterlimit="10" stroke-linejoin="miter" fill="none" stroke="#929292" d="M43.15079 0V2.83505M49.3152 0V2.83505M55.4796 0V2.83505M61.644 0V2.83505M67.80838 0V2.83505M80.1372 0V2.83505M86.3016 0V2.83505M92.466 0V2.83505M98.63042 0V2.83505M104.7948 0V2.83505M117.12363 0V2.83505M123.28802 0V2.83505M129.45243 0V2.83505M135.61682 0V2.83505M141.78122 0V2.83505M154.11003 0V2.83505M160.27443 0V2.83505M166.43885 0V2.83505M172.60324 0V2.83505M178.76763 0V2.83505M191.09645 0V2.83505M197.26085 0V2.83505M203.42525 0V2.83505M209.58966 0V2.83505M215.75405 0V2.83505M228.08286 0V2.83505M234.24727 0V2.83505M240.41167 0V2.83505M246.57607 0V2.83505M252.74045 0V2.83505M265.06929 0V2.83505M271.23368 0V2.83505M277.39808 0V2.83505M283.56248 0V2.83505M289.72688 0V2.83505M302.0557 0V2.83505M308.2201 0V2.83505M314.3845 0V2.83505M320.5489 0V2.83505M326.7133 0V2.83505M43.15079 44.83246V41.99738M49.3152 44.83246V41.99738M55.4796 44.83246V41.99738M61.644 44.83246V41.99738M67.80838 44.83246V41.99738M80.1372 44.83246V41.99738M86.3016 44.83246V41.99738M92.466 44.83246V41.99738M98.63042 44.83246V41.99738M104.7948 44.83246V41.99738M117.12363 44.83246V41.99738M123.28802 44.83246V41.99738M129.45243 44.83246V41.99738M135.61682 44.83246V41.99738M141.78122 44.83246V41.99738M154.11003 44.83246V41.99738M160.27443 44.83246V41.99738M166.43885 44.83246V41.99738M172.60324 44.83246V41.99738M178.76763 44.83246V41.99738M191.09645 44.83246V41.99738M197.26085 44.83246V41.99738M203.42525 44.83246V41.99738M209.58966 44.83246V41.99738M215.75405 44.83246V41.99738M228.08286 44.83246V41.99738M234.24727 44.83246V41.99738M240.41167 44.83246V41.99738M246.57607 44.83246V41.99738M252.74045 44.83246V41.99738M265.06929 44.83246V41.99738M271.23368 44.83246V41.99738M277.39808 44.83246V41.99738M283.56248 44.83246V41.99738M289.72688 44.83246V41.99738M302.0557 44.83246V41.99738M308.2201 44.83246V41.99738M314.3845 44.83246V41.99738M320.5489 44.83246V41.99738M326.7133 44.83246V41.99738"/>
<path transform="matrix(1,0,0,-1,-18.364,45.031999)" stroke-width=".19925" stroke-linecap="butt" stroke-miterlimit="10" stroke-linejoin="miter" fill="none" stroke="#929292" d="M36.9864 0V4.25221M73.97282 0V4.25221M110.95923 0V4.25221M147.94565 0V4.25221M184.93206 0V4.25221M221.91847 0V4.25221M258.90489 0V4.25221M295.8913 0V4.25221M332.87773 0V4.25221M36.9864 44.83246V40.58022M73.97282 44.83246V40.58022M110.95923 44.83246V40.58022M147.94565 44.83246V40.58022M184.93206 44.83246V40.58022M221.91847 44.83246V40.58022M258.90489 44.83246V40.58022M295.8913 44.83246V40.58022M332.87773 44.83246V40.58022"/>
<path transform="matrix(1,0,0,-1,-18.364,45.031999)" stroke-width=".19925" stroke-linecap="butt" stroke-miterlimit="10" stroke-linejoin="miter" fill="none" stroke="#929292" d="M36.9864 0H39.82138M36.9864 14.17691H39.82138M36.9864 20.04955H39.82138M36.9864 24.55565H39.82138M36.9864 28.35425H39.82138M36.9864 31.70102H39.82138M36.9864 34.72675H39.82138M36.9864 37.50948H39.82138M36.9864 40.09903H39.82138M36.9864 42.53165H39.82138M332.87773 0H330.04273M332.87773 14.17691H330.04273M332.87773 20.04955H330.04273M332.87773 24.55565H330.04273M332.87773 28.35425H330.04273M332.87773 31.70102H330.04273M332.87773 34.72675H330.04273M332.87773 37.50948H330.04273M332.87773 40.09903H330.04273M332.87773 42.53165H330.04273"/>
<path transform="matrix(1,0,0,-1,-18.364,45.031999)" stroke-width=".19925" stroke-linecap="butt" stroke-miterlimit="10" stroke-linejoin="miter" fill="none" stroke="#929292" d="M36.9864 14.17691H41.23843M36.9864 31.70102H41.23843M332.87773 14.17691H328.62568M332.87773 31.70102H328.62568"/>
<path transform="matrix(1,0,0,-1,-18.364,45.031999)" stroke-width=".3985" stroke-linecap="butt" stroke-miterlimit="10" stroke-linejoin="miter" fill="none" stroke="#000000" d="M36.9864 0V44.83246H332.87773V0H36.9864Z"/>
<text xml:space="preserve" transform="matrix(1 0 -0 1 -.0000009536743 192.97599)" font-size="8.96638" font-family="LMRoman9"><tspan y="-159.234" x="3.321 7.9297196 10.494104">0.1</tspan></text>
<text xml:space="preserve" transform="matrix(1 0 -0 1 -.0000009536743 192.976)" font-size="8.96638" font-family="LMRoman9"><tspan y="-176.758" x="3.321 7.9297196 10.494104">0.5</tspan></text>
<g clip-path="url(#clip_0)">
<path transform="matrix(1,0,0,-1,-18.364,45.031999)" stroke-width="1.19553" stroke-linecap="butt" stroke-dasharray="2.98883,2.98883" stroke-miterlimit="10" stroke-linejoin="miter" fill="none" stroke="#5778a4" d="M265.88993 0V896.6357"/>
<path transform="matrix(1,0,0,-1,-18.364,45.031999)" stroke-width="1.19553" stroke-linecap="butt" stroke-dasharray="2.98883,2.98883" stroke-miterlimit="10" stroke-linejoin="miter" fill="none" stroke="#e49444" d="M133.56331 0V896.6357"/>
<path transform="matrix(1,0,0,-1,-18.364,45.031999)" d="M129.08008 0H131.5624V0H129.08008ZM131.5624 0H134.0447V9.55713H131.5624ZM134.0447 0H136.52701V31.00543H134.0447ZM136.52701 0H139.00933V37.18344H136.52701ZM139.00933 0H141.49164V39.5259H139.00933ZM141.49166 0H143.97396V41.22572H141.49166ZM143.97396 0H146.45627V41.77895H143.97396ZM146.45627 0H148.93857V42.27191H146.45627ZM148.93857 0H151.42087V42.20096H148.93857ZM151.42087 0H153.90319V42.18324H151.42087ZM153.90319 0H156.3855V42.03508H153.90319ZM156.3855 0H158.86782V41.86848H156.3855ZM158.86782 0H161.35012V41.47322H158.86782ZM161.35012 0H163.83243V41.1833H161.35012ZM163.83243 0H166.31473V40.9341H163.83243ZM166.31473 0H168.79705V40.28886H166.31473ZM168.79705 0H171.27935V40.14616H168.79705ZM171.27935 0H173.76166V39.55121H171.27935ZM173.76166 0H176.24398V38.99197H173.76166ZM176.24398 0H178.72628V38.72865H176.24398ZM178.72628 0H181.20859V38.23578H178.72628ZM181.20859 0H183.69089V37.80911H181.20859ZM183.69089 0H186.1732V37.31746H183.69089ZM186.1732 0H188.6555V36.92754H186.1732ZM188.65552 0H191.13784V36.44456H188.65552ZM191.13784 0H193.62014V35.88559H191.13784ZM193.62014 0H196.10245V35.38127H193.62014ZM196.10245 0H198.58477V34.85542H196.10245ZM198.58477 0H201.06707V34.69034H198.58477ZM201.06707 0H203.54938V33.90446H201.06707ZM203.54938 0H206.03168V33.60127H203.54938ZM206.03168 0H208.51399V33.12254H206.03168ZM208.51399 0H210.99629V32.5449H208.51399ZM210.99629 0H213.4786V31.8002H210.99629ZM213.4786 0H215.96092V31.50845H213.4786ZM215.96092 0H218.44324V31.15799H215.96092ZM218.44324 0H220.92554V30.59218H218.44324ZM220.92554 0H223.40784V29.83221H220.92554ZM223.40784 0H225.89015V29.2749H223.40784ZM225.89015 0H228.37245V28.71538H225.89015ZM228.37245 0H230.85477V27.98477H228.37245ZM230.85477 0H233.33708V27.58957H230.85477ZM233.33708 0H235.8194V27.04135H233.33708ZM235.81941 0H238.30171V26.09258H235.81941ZM238.30171 0H240.78403V25.6294H238.30171ZM240.78403 0H243.26633V24.99838H240.78403ZM243.26633 0H245.74864V24.17624H243.26633ZM245.74864 0H248.23094V23.41054H245.74864ZM248.23094 0H250.71326V22.24062H248.23094ZM250.71326 0H253.19557V21.52203H250.71326ZM253.19557 0H255.67789V19.9827H253.19557ZM255.67789 0H258.1602V19.34822H255.67789ZM258.1602 0H260.64253V17.34877H258.1602ZM260.6425 0H263.1248V15.49467H260.6425ZM263.1248 0H265.60713V12.21625H263.1248ZM265.60713 0H268.08943V5.51778H265.60713ZM268.08943 0H270.57176V1.2237H268.08943ZM270.57173 0H275.53633V0H270.57173Z" fill="#e0e0e0"/>
<path transform="matrix(1,0,0,-1,-18.364,45.031999)" stroke-width=".3985" stroke-linecap="butt" stroke-miterlimit="10" stroke-linejoin="miter" fill="none" stroke="#e0e0e0" d="M129.08008 0H131.5624V0H129.08008ZM131.5624 0H134.0447V9.55713H131.5624ZM134.0447 0H136.52701V31.00543H134.0447ZM136.52701 0H139.00933V37.18344H136.52701ZM139.00933 0H141.49164V39.5259H139.00933ZM141.49166 0H143.97396V41.22572H141.49166ZM143.97396 0H146.45627V41.77895H143.97396ZM146.45627 0H148.93857V42.27191H146.45627ZM148.93857 0H151.42087V42.20096H148.93857ZM151.42087 0H153.90319V42.18324H151.42087ZM153.90319 0H156.3855V42.03508H153.90319ZM156.3855 0H158.86782V41.86848H156.3855ZM158.86782 0H161.35012V41.47322H158.86782ZM161.35012 0H163.83243V41.1833H161.35012ZM163.83243 0H166.31473V40.9341H163.83243ZM166.31473 0H168.79705V40.28886H166.31473ZM168.79705 0H171.27935V40.14616H168.79705ZM171.27935 0H173.76166V39.55121H171.27935ZM173.76166 0H176.24398V38.99197H173.76166ZM176.24398 0H178.72628V38.72865H176.24398ZM178.72628 0H181.20859V38.23578H178.72628ZM181.20859 0H183.69089V37.80911H181.20859ZM183.69089 0H186.1732V37.31746H183.69089ZM186.1732 0H188.6555V36.92754H186.1732ZM188.65552 0H191.13784V36.44456H188.65552ZM191.13784 0H193.62014V35.88559H191.13784ZM193.62014 0H196.10245V35.38127H193.62014ZM196.10245 0H198.58477V34.85542H196.10245ZM198.58477 0H201.06707V34.69034H198.58477ZM201.06707 0H203.54938V33.90446H201.06707ZM203.54938 0H206.03168V33.60127H203.54938ZM206.03168 0H208.51399V33.12254H206.03168ZM208.51399 0H210.99629V32.5449H208.51399ZM210.99629 0H213.4786V31.8002H210.99629ZM213.4786 0H215.96092V31.50845H213.4786ZM215.96092 0H218.44324V31.15799H215.96092ZM218.44324 0H220.92554V30.59218H218.44324ZM220.92554 0H223.40784V29.83221H220.92554ZM223.40784 0H225.89015V29.2749H223.40784ZM225.89015 0H228.37245V28.71538H225.89015ZM228.37245 0H230.85477V27.98477H228.37245ZM230.85477 0H233.33708V27.58957H230.85477ZM233.33708 0H235.8194V27.04135H233.33708ZM235.81941 0H238.30171V26.09258H235.81941ZM238.30171 0H240.78403V25.6294H238.30171ZM240.78403 0H243.26633V24.99838H240.78403ZM243.26633 0H245.74864V24.17624H243.26633ZM245.74864 0H248.23094V23.41054H245.74864ZM248.23094 0H250.71326V22.24062H248.23094ZM250.71326 0H253.19557V21.52203H250.71326ZM253.19557 0H255.67789V19.9827H253.19557ZM255.67789 0H258.1602V19.34822H255.67789ZM258.1602 0H260.64253V17.34877H258.1602ZM260.6425 0H263.1248V15.49467H260.6425ZM263.1248 0H265.60713V12.21625H263.1248ZM265.60713 0H268.08943V5.51778H265.60713ZM268.08943 0H270.57176V1.2237H268.08943ZM270.57173 0H275.53633V0H270.57173Z"/>
<path transform="matrix(1,0,0,-1,-18.364,45.031999)" d="M258.1602 0H260.64253V0H258.1602ZM260.6425 0H263.1248V3.6024H260.6425ZM263.1248 0H265.60713V10.26228H263.1248ZM265.60713 0H268.08943V5.47243H265.60713ZM268.08943 0H270.57176V1.2237H268.08943ZM270.57173 0H275.53633V0H270.57173Z" fill="#7993b6"/>
<path transform="matrix(1,0,0,-1,-18.364,45.031999)" stroke-width=".3985" stroke-linecap="butt" stroke-miterlimit="10" stroke-linejoin="miter" fill="none" stroke="#7993b6" d="M258.1602 0H260.64253V0H258.1602ZM260.6425 0H263.1248V3.6024H260.6425ZM263.1248 0H265.60713V10.26228H263.1248ZM265.60713 0H268.08943V5.47243H265.60713ZM268.08943 0H270.57176V1.2237H268.08943ZM270.57173 0H275.53633V0H270.57173Z"/>
<path transform="matrix(1,0,0,-1,-18.364,45.031999)" d="M129.08008 0H131.5624V0H129.08008ZM131.5624 0H134.0447V9.1843H131.5624ZM134.0447 0H136.52701V8.08606H134.0447ZM136.52701 0H141.49164V0H136.52701Z" fill="#e9a969"/>
<path transform="matrix(1,0,0,-1,-18.364,45.031999)" stroke-width=".3985" stroke-linecap="butt" stroke-miterlimit="10" stroke-linejoin="miter" fill="none" stroke="#e9a969" d="M129.08008 0H131.5624V0H129.08008ZM131.5624 0H134.0447V9.1843H131.5624ZM134.0447 0H136.52701V8.08606H134.0447ZM136.52701 0H141.49164V0H136.52701Z"/>
<path transform="matrix(1,0,0,-1,-18.364,45.031999)" stroke-width=".79701" stroke-linecap="butt" stroke-miterlimit="10" stroke-linejoin="miter" fill="none" stroke="#000000" d="M0 .00334 133.28437 .0673 134.02483 23.2586 134.39507 26.71605 134.76529 29.04286 135.13553 30.79883 135.876 33.3632 136.61647 35.19226 136.98671 35.9295 137.72716 37.153 138.83786 38.53842 139.94858 39.55531 141.05927 40.31725 141.79975 40.71889 142.54022 41.05258 143.28069 41.3295 144.02115 41.55818 144.76163 41.74583 145.87233 41.96242 146.98303 42.11435 148.09374 42.21349 149.20446 42.26881 150.31514 42.2877 151.79608 42.26588 153.27701 42.20027 154.75795 42.0991 156.60913 41.9326 158.4603 41.73051 160.6817 41.45142 163.27335 41.08734 165.86498 40.69226 172.15897 39.64774 188.44928 36.68358 197.70514 34.91965 231.39647 27.77557 238.80115 25.8459 244.72489 24.08286 249.90819 22.27933 253.98076 20.57922 255.83194 19.67664 257.6831 18.65263 259.16407 17.71092 260.64497 16.60933 261.75569 15.62628 262.8664 14.4288 263.60688 13.43652 264.34736 12.16994 265.08778 10.32413 265.458 8.83939 265.82826 5.43083 266.1985 .02756 369.8641 .00342"/>
</g>
<path transform="matrix(1,0,0,-1,-18.364,45.031999)" d="" fill="#996633"/>
<path transform="matrix(1,0,0,-1,-18.364,45.031999)" stroke-width=".3985" stroke-linecap="butt" stroke-miterlimit="10" stroke-linejoin="miter" fill="none" stroke="#e0e0e0" d=""/>
<path transform="matrix(1,0,0,-1,-18.364,45.031999)" d="" fill="#7993b6"/>
<path transform="matrix(1,0,0,-1,-18.364,45.031999)" stroke-width=".3985" stroke-linecap="butt" stroke-miterlimit="10" stroke-linejoin="miter" fill="none" stroke="#7993b6" d=""/>
<path transform="matrix(1,0,0,-1,-18.364,45.031999)" d="" fill="#0000cc"/>
<path transform="matrix(1,0,0,-1,-18.364,45.031999)" stroke-width=".3985" stroke-linecap="butt" stroke-miterlimit="10" stroke-linejoin="miter" fill="none" stroke="#e9a969" d=""/>
<text xml:space="preserve" transform="matrix(0 -1 1 0 479.396 363.47599)" font-size="9.96264" font-family="CMMI10" font-style="italic"><tspan y="-154.448" x="324.948">&#x03bb;</tspan></text>
<text xml:space="preserve" transform="matrix(0 -1 1 0 479.396 363.47599)" font-size="9.96264" font-family="CMR10"><tspan y="-154.448" x="333.527 344.0376">=0</tspan></text>
<text xml:space="preserve" transform="matrix(0 -1 1 0 479.396 363.47599)" font-size="9.96264" font-family="CMMI10" font-style="italic"><tspan y="-154.448" x="349.024">.</tspan></text>
<text xml:space="preserve" transform="matrix(0 -1 1 0 479.396 363.47599)" font-size="9.96264" font-family="CMR10"><tspan y="-154.448" x="351.792">0</tspan></text>
<path transform="matrix(1,0,0,-1,-18.364,89.86299)" stroke-width=".09962" stroke-linecap="butt" stroke-miterlimit="10" stroke-linejoin="miter" fill="none" stroke="#f5f5f5" d="M43.15079 0V44.83246M49.3152 0V44.83246M55.4796 0V44.83246M61.644 0V44.83246M67.80838 0V44.83246M80.1372 0V44.83246M86.3016 0V44.83246M92.466 0V44.83246M98.63042 0V44.83246M104.7948 0V44.83246M117.12363 0V44.83246M123.28802 0V44.83246M129.45243 0V44.83246M135.61682 0V44.83246M141.78122 0V44.83246M154.11003 0V44.83246M160.27443 0V44.83246M166.43885 0V44.83246M172.60324 0V44.83246M178.76763 0V44.83246M191.09645 0V44.83246M197.26085 0V44.83246M203.42525 0V44.83246M209.58966 0V44.83246M215.75405 0V44.83246M228.08286 0V44.83246M234.24727 0V44.83246M240.41167 0V44.83246M246.57607 0V44.83246M252.74045 0V44.83246M265.06929 0V44.83246M271.23368 0V44.83246M277.39808 0V44.83246M283.56248 0V44.83246M289.72688 0V44.83246M302.0557 0V44.83246M308.2201 0V44.83246M314.3845 0V44.83246M320.5489 0V44.83246M326.7133 0V44.83246"/>
<path transform="matrix(1,0,0,-1,-18.364,89.86299)" stroke-width=".19925" stroke-linecap="butt" stroke-miterlimit="10" stroke-linejoin="miter" fill="none" stroke="#cbcbcb" d="M36.9864 0V44.83246M73.97282 0V44.83246M110.95923 0V44.83246M147.94565 0V44.83246M184.93206 0V44.83246M221.91847 0V44.83246M258.90489 0V44.83246M295.8913 0V44.83246M332.87773 0V44.83246"/>
<path transform="matrix(1,0,0,-1,-18.364,89.86299)" stroke-width=".09962" stroke-linecap="butt" stroke-miterlimit="10" stroke-linejoin="miter" fill="none" stroke="#f5f5f5" d="M36.9864 0H332.87773M36.9864 14.17691H332.87773M36.9864 20.04955H332.87773M36.9864 24.55565H332.87773M36.9864 28.35425H332.87773M36.9864 31.70102H332.87773M36.9864 34.72675H332.87773M36.9864 37.50948H332.87773M36.9864 40.09903H332.87773M36.9864 42.53165H332.87773"/>
<path transform="matrix(1,0,0,-1,-18.364,89.86299)" stroke-width=".19925" stroke-linecap="butt" stroke-miterlimit="10" stroke-linejoin="miter" fill="none" stroke="#cbcbcb" d="M36.9864 14.17691H332.87773M36.9864 31.70102H332.87773"/>
<path transform="matrix(1,0,0,-1,-18.364,89.86299)" stroke-width=".19925" stroke-linecap="butt" stroke-miterlimit="10" stroke-linejoin="miter" fill="none" stroke="#929292" d="M43.15079 0V2.83505M49.3152 0V2.83505M55.4796 0V2.83505M61.644 0V2.83505M67.80838 0V2.83505M80.1372 0V2.83505M86.3016 0V2.83505M92.466 0V2.83505M98.63042 0V2.83505M104.7948 0V2.83505M117.12363 0V2.83505M123.28802 0V2.83505M129.45243 0V2.83505M135.61682 0V2.83505M141.78122 0V2.83505M154.11003 0V2.83505M160.27443 0V2.83505M166.43885 0V2.83505M172.60324 0V2.83505M178.76763 0V2.83505M191.09645 0V2.83505M197.26085 0V2.83505M203.42525 0V2.83505M209.58966 0V2.83505M215.75405 0V2.83505M228.08286 0V2.83505M234.24727 0V2.83505M240.41167 0V2.83505M246.57607 0V2.83505M252.74045 0V2.83505M265.06929 0V2.83505M271.23368 0V2.83505M277.39808 0V2.83505M283.56248 0V2.83505M289.72688 0V2.83505M302.0557 0V2.83505M308.2201 0V2.83505M314.3845 0V2.83505M320.5489 0V2.83505M326.7133 0V2.83505M43.15079 44.83246V41.99738M49.3152 44.83246V41.99738M55.4796 44.83246V41.99738M61.644 44.83246V41.99738M67.80838 44.83246V41.99738M80.1372 44.83246V41.99738M86.3016 44.83246V41.99738M92.466 44.83246V41.99738M98.63042 44.83246V41.99738M104.7948 44.83246V41.99738M117.12363 44.83246V41.99738M123.28802 44.83246V41.99738M129.45243 44.83246V41.99738M135.61682 44.83246V41.99738M141.78122 44.83246V41.99738M154.11003 44.83246V41.99738M160.27443 44.83246V41.99738M166.43885 44.83246V41.99738M172.60324 44.83246V41.99738M178.76763 44.83246V41.99738M191.09645 44.83246V41.99738M197.26085 44.83246V41.99738M203.42525 44.83246V41.99738M209.58966 44.83246V41.99738M215.75405 44.83246V41.99738M228.08286 44.83246V41.99738M234.24727 44.83246V41.99738M240.41167 44.83246V41.99738M246.57607 44.83246V41.99738M252.74045 44.83246V41.99738M265.06929 44.83246V41.99738M271.23368 44.83246V41.99738M277.39808 44.83246V41.99738M283.56248 44.83246V41.99738M289.72688 44.83246V41.99738M302.0557 44.83246V41.99738M308.2201 44.83246V41.99738M314.3845 44.83246V41.99738M320.5489 44.83246V41.99738M326.7133 44.83246V41.99738"/>
<path transform="matrix(1,0,0,-1,-18.364,89.86299)" stroke-width=".19925" stroke-linecap="butt" stroke-miterlimit="10" stroke-linejoin="miter" fill="none" stroke="#929292" d="M36.9864 0V4.25221M73.97282 0V4.25221M110.95923 0V4.25221M147.94565 0V4.25221M184.93206 0V4.25221M221.91847 0V4.25221M258.90489 0V4.25221M295.8913 0V4.25221M332.87773 0V4.25221M36.9864 44.83246V40.58022M73.97282 44.83246V40.58022M110.95923 44.83246V40.58022M147.94565 44.83246V40.58022M184.93206 44.83246V40.58022M221.91847 44.83246V40.58022M258.90489 44.83246V40.58022M295.8913 44.83246V40.58022M332.87773 44.83246V40.58022"/>
<path transform="matrix(1,0,0,-1,-18.364,89.86299)" stroke-width=".19925" stroke-linecap="butt" stroke-miterlimit="10" stroke-linejoin="miter" fill="none" stroke="#929292" d="M36.9864 0H39.82138M36.9864 14.17691H39.82138M36.9864 20.04955H39.82138M36.9864 24.55565H39.82138M36.9864 28.35425H39.82138M36.9864 31.70102H39.82138M36.9864 34.72675H39.82138M36.9864 37.50948H39.82138M36.9864 40.09903H39.82138M36.9864 42.53165H39.82138M332.87773 0H330.04273M332.87773 14.17691H330.04273M332.87773 20.04955H330.04273M332.87773 24.55565H330.04273M332.87773 28.35425H330.04273M332.87773 31.70102H330.04273M332.87773 34.72675H330.04273M332.87773 37.50948H330.04273M332.87773 40.09903H330.04273M332.87773 42.53165H330.04273"/>
<path transform="matrix(1,0,0,-1,-18.364,89.86299)" stroke-width=".19925" stroke-linecap="butt" stroke-miterlimit="10" stroke-linejoin="miter" fill="none" stroke="#929292" d="M36.9864 14.17691H41.23843M36.9864 31.70102H41.23843M332.87773 14.17691H328.62568M332.87773 31.70102H328.62568"/>
<path transform="matrix(1,0,0,-1,-18.364,89.86299)" stroke-width=".3985" stroke-linecap="butt" stroke-miterlimit="10" stroke-linejoin="miter" fill="none" stroke="#000000" d="M36.9864 0V44.83246H332.87773V0H36.9864Z"/>
<text xml:space="preserve" transform="matrix(1 0 -0 1 -.0000009536743 192.97599)" font-size="8.96638" font-family="LMRoman9"><tspan y="-114.402" x="3.321 7.9297196 10.494104">0.1</tspan></text>
<text xml:space="preserve" transform="matrix(1 0 -0 1 -.0000009536743 192.97599)" font-size="8.96638" font-family="LMRoman9"><tspan y="-131.926" x="3.321 7.9297196 10.494104">0.5</tspan></text>
<g clip-path="url(#clip_1)">
<path transform="matrix(1,0,0,-1,-18.364,89.86299)" stroke-width="1.19553" stroke-linecap="butt" stroke-dasharray="2.98883,2.98883" stroke-miterlimit="10" stroke-linejoin="miter" fill="none" stroke="#5778a4" d="M267.07655 0V896.6357"/>
<path transform="matrix(1,0,0,-1,-18.364,89.86299)" stroke-width="1.19553" stroke-linecap="butt" stroke-dasharray="2.98883,2.98883" stroke-miterlimit="10" stroke-linejoin="miter" fill="none" stroke="#e49444" d="M124.9794 0V896.6357"/>
<path transform="matrix(1,0,0,-1,-18.364,89.86299)" d="M114.18622 0H116.66854V0H114.18622ZM116.66853 0H119.150859V1.2237H116.66853ZM119.15085 0H121.63317V3.38821H119.15085ZM121.63316 0H124.11546V6.1994H121.63316ZM124.11546 0H126.597789V7.54317H124.11546ZM126.59778 0H129.08008V6.07744H126.59778ZM129.08008 0H131.5624V2.11949H129.08008ZM131.5624 0H134.0447V9.23848H131.5624ZM134.0447 0H136.52701V30.39577H134.0447ZM136.52701 0H139.00933V36.88019H136.52701ZM139.00933 0H141.49164V39.58905H139.00933ZM141.49166 0H143.97396V41.0194H141.49166ZM143.97396 0H146.45627V41.76704H143.97396ZM146.45627 0H148.93857V41.93402H146.45627ZM148.93857 0H151.42087V42.33676H148.93857ZM151.42087 0H153.90319V42.20685H151.42087ZM153.90319 0H156.3855V41.83867H153.90319ZM156.3855 0H158.86782V41.78497H156.3855ZM158.86782 0H161.35012V41.49123H158.86782ZM161.35012 0H163.83243V41.1712H161.35012ZM163.83243 0H166.31473V40.64658H163.83243ZM166.31473 0H168.79705V40.33224H166.31473ZM168.79705 0H171.27935V39.9092H168.79705ZM171.27935 0H173.76166V39.5259H171.27935ZM173.76166 0H176.24398V39.06865H173.76166ZM176.24398 0H178.72628V38.88942H176.24398ZM178.72628 0H181.20859V38.14426H178.72628ZM181.20859 0H183.69089V37.70335H181.20859ZM183.69089 0H186.1732V37.31076H183.69089ZM186.1732 0H188.6555V36.7853H186.1732ZM188.65552 0H191.13784V36.45824H188.65552ZM191.13784 0H193.62014V35.83682H191.13784ZM193.62014 0H196.10245V35.57126H193.62014ZM196.10245 0H198.58477V34.91978H196.10245ZM198.58477 0H201.06707V34.58945H198.58477ZM201.06707 0H203.54938V33.77168H201.06707ZM203.54938 0H206.03168V33.63843H203.54938ZM206.03168 0H208.51399V32.95639H206.03168ZM208.51399 0H210.99629V32.39886H208.51399ZM210.99629 0H213.4786V31.91766H210.99629ZM213.4786 0H215.96092V31.5718H213.4786ZM215.96092 0H218.44324V30.63295H215.96092ZM218.44324 0H220.92554V30.77113H218.44324ZM220.92554 0H223.40784V29.68965H220.92554ZM223.40784 0H225.89015V29.20662H223.40784ZM225.89015 0H228.37245V29.0094H225.89015ZM228.37245 0H230.85477V28.09157H228.37245ZM230.85477 0H233.33708V27.50803H230.85477ZM233.33708 0H235.8194V27.16106H233.33708ZM235.81941 0H238.30171V25.98717H235.81941ZM238.30171 0H240.78403V25.60988H238.30171ZM240.78403 0H243.26633V24.95844H240.78403ZM243.26633 0H245.74864V23.88544H243.26633ZM245.74864 0H248.23094V23.3251H245.74864ZM248.23094 0H250.71326V22.62993H248.23094ZM250.71326 0H253.19557V21.324H250.71326ZM253.19557 0H255.67789V20.06993H253.19557ZM255.67789 0H258.1602V18.9836H255.67789ZM258.1602 0H260.64253V17.17528H258.1602ZM260.6425 0H263.1248V14.95369H260.6425ZM263.1248 0H265.60713V11.80066H263.1248ZM265.60713 0H268.08943V8.79565H265.60713ZM268.08943 0H270.57176V5.38042H268.08943ZM270.57173 0H273.05403V3.31378H270.57173ZM273.05403 0H275.53636V2.23415H273.05403ZM275.53636 0H278.01866V1.2237H275.53636ZM278.01866 0H282.98326V0H278.01866Z" fill="#e0e0e0"/>
<path transform="matrix(1,0,0,-1,-18.364,89.86299)" stroke-width=".3985" stroke-linecap="butt" stroke-miterlimit="10" stroke-linejoin="miter" fill="none" stroke="#e0e0e0" d="M114.18622 0H116.66854V0H114.18622ZM116.66853 0H119.150859V1.2237H116.66853ZM119.15085 0H121.63317V3.38821H119.15085ZM121.63316 0H124.11546V6.1994H121.63316ZM124.11546 0H126.597789V7.54317H124.11546ZM126.59778 0H129.08008V6.07744H126.59778ZM129.08008 0H131.5624V2.11949H129.08008ZM131.5624 0H134.0447V9.23848H131.5624ZM134.0447 0H136.52701V30.39577H134.0447ZM136.52701 0H139.00933V36.88019H136.52701ZM139.00933 0H141.49164V39.58905H139.00933ZM141.49166 0H143.97396V41.0194H141.49166ZM143.97396 0H146.45627V41.76704H143.97396ZM146.45627 0H148.93857V41.93402H146.45627ZM148.93857 0H151.42087V42.33676H148.93857ZM151.42087 0H153.90319V42.20685H151.42087ZM153.90319 0H156.3855V41.83867H153.90319ZM156.3855 0H158.86782V41.78497H156.3855ZM158.86782 0H161.35012V41.49123H158.86782ZM161.35012 0H163.83243V41.1712H161.35012ZM163.83243 0H166.31473V40.64658H163.83243ZM166.31473 0H168.79705V40.33224H166.31473ZM168.79705 0H171.27935V39.9092H168.79705ZM171.27935 0H173.76166V39.5259H171.27935ZM173.76166 0H176.24398V39.06865H173.76166ZM176.24398 0H178.72628V38.88942H176.24398ZM178.72628 0H181.20859V38.14426H178.72628ZM181.20859 0H183.69089V37.70335H181.20859ZM183.69089 0H186.1732V37.31076H183.69089ZM186.1732 0H188.6555V36.7853H186.1732ZM188.65552 0H191.13784V36.45824H188.65552ZM191.13784 0H193.62014V35.83682H191.13784ZM193.62014 0H196.10245V35.57126H193.62014ZM196.10245 0H198.58477V34.91978H196.10245ZM198.58477 0H201.06707V34.58945H198.58477ZM201.06707 0H203.54938V33.77168H201.06707ZM203.54938 0H206.03168V33.63843H203.54938ZM206.03168 0H208.51399V32.95639H206.03168ZM208.51399 0H210.99629V32.39886H208.51399ZM210.99629 0H213.4786V31.91766H210.99629ZM213.4786 0H215.96092V31.5718H213.4786ZM215.96092 0H218.44324V30.63295H215.96092ZM218.44324 0H220.92554V30.77113H218.44324ZM220.92554 0H223.40784V29.68965H220.92554ZM223.40784 0H225.89015V29.20662H223.40784ZM225.89015 0H228.37245V29.0094H225.89015ZM228.37245 0H230.85477V28.09157H228.37245ZM230.85477 0H233.33708V27.50803H230.85477ZM233.33708 0H235.8194V27.16106H233.33708ZM235.81941 0H238.30171V25.98717H235.81941ZM238.30171 0H240.78403V25.60988H238.30171ZM240.78403 0H243.26633V24.95844H240.78403ZM243.26633 0H245.74864V23.88544H243.26633ZM245.74864 0H248.23094V23.3251H245.74864ZM248.23094 0H250.71326V22.62993H248.23094ZM250.71326 0H253.19557V21.324H250.71326ZM253.19557 0H255.67789V20.06993H253.19557ZM255.67789 0H258.1602V18.9836H255.67789ZM258.1602 0H260.64253V17.17528H258.1602ZM260.6425 0H263.1248V14.95369H260.6425ZM263.1248 0H265.60713V11.80066H263.1248ZM265.60713 0H268.08943V8.79565H265.60713ZM268.08943 0H270.57176V5.38042H268.08943ZM270.57173 0H273.05403V3.31378H270.57173ZM273.05403 0H275.53636V2.23415H273.05403ZM275.53636 0H278.01866V1.2237H275.53636ZM278.01866 0H282.98326V0H278.01866Z"/>
<path transform="matrix(1,0,0,-1,-18.364,89.86299)" d="M258.1602 0H260.64253V0H258.1602ZM260.6425 0H263.1248V1.2237H260.6425ZM263.1248 0H265.60713V5.82584H263.1248ZM265.60713 0H268.08943V8.23895H265.60713ZM268.08943 0H270.57176V5.38042H268.08943ZM270.57173 0H273.05403V3.31378H270.57173ZM273.05403 0H275.53636V2.23415H273.05403ZM275.53636 0H278.01866V1.2237H275.53636ZM278.01866 0H282.98326V0H278.01866Z" fill="#7993b6"/>
<path transform="matrix(1,0,0,-1,-18.364,89.86299)" stroke-width=".3985" stroke-linecap="butt" stroke-miterlimit="10" stroke-linejoin="miter" fill="none" stroke="#7993b6" d="M258.1602 0H260.64253V0H258.1602ZM260.6425 0H263.1248V1.2237H260.6425ZM263.1248 0H265.60713V5.82584H263.1248ZM265.60713 0H268.08943V8.23895H265.60713ZM268.08943 0H270.57176V5.38042H268.08943ZM270.57173 0H273.05403V3.31378H270.57173ZM273.05403 0H275.53636V2.23415H273.05403ZM275.53636 0H278.01866V1.2237H275.53636ZM278.01866 0H282.98326V0H278.01866Z"/>
<path transform="matrix(1,0,0,-1,-18.364,89.86299)" d="M114.18622 0H116.66854V0H114.18622ZM116.66853 0H119.150859V1.2237H116.66853ZM119.15085 0H121.63317V3.38821H119.15085ZM121.63316 0H124.11546V6.1994H121.63316ZM124.11546 0H126.597789V7.54317H124.11546ZM126.59778 0H129.08008V6.07744H126.59778ZM129.08008 0H131.5624V2.11949H129.08008ZM131.5624 0H136.52701V0H131.5624Z" fill="#e9a969"/>
<path transform="matrix(1,0,0,-1,-18.364,89.86299)" stroke-width=".3985" stroke-linecap="butt" stroke-miterlimit="10" stroke-linejoin="miter" fill="none" stroke="#e9a969" d="M114.18622 0H116.66854V0H114.18622ZM116.66853 0H119.150859V1.2237H116.66853ZM119.15085 0H121.63317V3.38821H119.15085ZM121.63316 0H124.11546V6.1994H121.63316ZM124.11546 0H126.597789V7.54317H124.11546ZM126.59778 0H129.08008V6.07744H126.59778ZM129.08008 0H131.5624V2.11949H129.08008ZM131.5624 0H136.52701V0H131.5624Z"/>
<path transform="matrix(1,0,0,-1,-18.364,89.86299)" stroke-width=".79701" stroke-linecap="butt" stroke-miterlimit="10" stroke-linejoin="miter" fill="none" stroke="#000000" d="M0 .00334 121.43684 .02927 121.80708 5.07585 122.17734 6.12437 122.91779 7.2358 124.02849 8.08598 124.76897 8.36441 125.50943 8.44781 126.2499 8.30154 126.62015 8.10959 126.99037 7.79854 127.3606 7.29936 127.73085 6.42802 128.10108 4.0089 128.47132 .02846 133.65459 .1823 134.02483 21.91252 134.39507 25.89952 134.76529 28.4421 135.50577 31.79987 136.24622 34.03986 136.98671 35.68071 137.35694 36.35036 138.09741 37.47043 139.20812 38.75008 140.31882 39.69563 141.05927 40.19124 141.79975 40.60278 142.54022 40.94492 143.28069 41.22894 144.02115 41.46387 144.76163 41.6569 145.50209 41.81384 146.6128 41.99203 147.35327 42.07823 148.46398 42.16655 149.57466 42.213 150.68538 42.22456 152.1663 42.19493 153.64723 42.12318 155.12819 42.01715 156.97934 41.84592 158.83054 41.64035 161.05193 41.35823 165.86498 40.65321 172.5292 39.54855 188.44928 36.653 197.70514 34.8897 229.91551 28.09703 236.20952 26.50502 241.39279 25.05345 245.8356 23.66064 249.90819 22.20476 253.2403 20.82037 256.20219 19.35977 257.6831 18.50555 259.16407 17.52751 260.64497 16.36523 261.75569 15.30252 262.49617 14.44719 263.23664 13.39807 263.97709 12.0011 264.71757 10.08374 265.08778 9.489 265.82826 8.96887 268.4199 7.35094 269.5306 6.24524 270.27107 4.98276 271.01155 .0188 369.8641 .00342"/>
</g>
<path transform="matrix(1,0,0,-1,-18.364,89.86299)" d="" fill="#996633"/>
<path transform="matrix(1,0,0,-1,-18.364,89.86299)" stroke-width=".3985" stroke-linecap="butt" stroke-miterlimit="10" stroke-linejoin="miter" fill="none" stroke="#e0e0e0" d=""/>
<path transform="matrix(1,0,0,-1,-18.364,89.86299)" d="" fill="#7993b6"/>
<path transform="matrix(1,0,0,-1,-18.364,89.86299)" stroke-width=".3985" stroke-linecap="butt" stroke-miterlimit="10" stroke-linejoin="miter" fill="none" stroke="#7993b6" d=""/>
<path transform="matrix(1,0,0,-1,-18.364,89.86299)" d="" fill="#0000cc"/>
<path transform="matrix(1,0,0,-1,-18.364,89.86299)" stroke-width=".3985" stroke-linecap="butt" stroke-miterlimit="10" stroke-linejoin="miter" fill="none" stroke="#e9a969" d=""/>
<text xml:space="preserve" transform="matrix(0 -1 1 0 434.564 408.30799)" font-size="9.96264" font-family="CMMI10" font-style="italic"><tspan y="-109.616" x="324.948">&#x03bb;</tspan></text>
<text xml:space="preserve" transform="matrix(0 -1 1 0 434.564 408.30799)" font-size="9.96264" font-family="CMR10"><tspan y="-109.616" x="333.527 344.0376">=2</tspan></text>
<text xml:space="preserve" transform="matrix(0 -1 1 0 434.564 408.30799)" font-size="9.96264" font-family="CMMI10" font-style="italic"><tspan y="-109.616" x="349.024">.</tspan></text>
<text xml:space="preserve" transform="matrix(0 -1 1 0 434.564 408.30799)" font-size="9.96264" font-family="CMR10"><tspan y="-109.616" x="351.792">0</tspan></text>
<path transform="matrix(1,0,0,-1,-18.364,134.69499)" stroke-width=".09962" stroke-linecap="butt" stroke-miterlimit="10" stroke-linejoin="miter" fill="none" stroke="#f5f5f5" d="M43.15079 0V44.83246M49.3152 0V44.83246M55.4796 0V44.83246M61.644 0V44.83246M67.80838 0V44.83246M80.1372 0V44.83246M86.3016 0V44.83246M92.466 0V44.83246M98.63042 0V44.83246M104.7948 0V44.83246M117.12363 0V44.83246M123.28802 0V44.83246M129.45243 0V44.83246M135.61682 0V44.83246M141.78122 0V44.83246M154.11003 0V44.83246M160.27443 0V44.83246M166.43885 0V44.83246M172.60324 0V44.83246M178.76763 0V44.83246M191.09645 0V44.83246M197.26085 0V44.83246M203.42525 0V44.83246M209.58966 0V44.83246M215.75405 0V44.83246M228.08286 0V44.83246M234.24727 0V44.83246M240.41167 0V44.83246M246.57607 0V44.83246M252.74045 0V44.83246M265.06929 0V44.83246M271.23368 0V44.83246M277.39808 0V44.83246M283.56248 0V44.83246M289.72688 0V44.83246M302.0557 0V44.83246M308.2201 0V44.83246M314.3845 0V44.83246M320.5489 0V44.83246M326.7133 0V44.83246"/>
<path transform="matrix(1,0,0,-1,-18.364,134.69499)" stroke-width=".19925" stroke-linecap="butt" stroke-miterlimit="10" stroke-linejoin="miter" fill="none" stroke="#cbcbcb" d="M36.9864 0V44.83246M73.97282 0V44.83246M110.95923 0V44.83246M147.94565 0V44.83246M184.93206 0V44.83246M221.91847 0V44.83246M258.90489 0V44.83246M295.8913 0V44.83246M332.87773 0V44.83246"/>
<path transform="matrix(1,0,0,-1,-18.364,134.69499)" stroke-width=".09962" stroke-linecap="butt" stroke-miterlimit="10" stroke-linejoin="miter" fill="none" stroke="#f5f5f5" d="M36.9864 0H332.87773M36.9864 14.17691H332.87773M36.9864 20.04955H332.87773M36.9864 24.55565H332.87773M36.9864 28.35425H332.87773M36.9864 31.70102H332.87773M36.9864 34.72675H332.87773M36.9864 37.50948H332.87773M36.9864 40.09903H332.87773M36.9864 42.53165H332.87773"/>
<path transform="matrix(1,0,0,-1,-18.364,134.69499)" stroke-width=".19925" stroke-linecap="butt" stroke-miterlimit="10" stroke-linejoin="miter" fill="none" stroke="#cbcbcb" d="M36.9864 14.17691H332.87773M36.9864 31.70102H332.87773"/>
<path transform="matrix(1,0,0,-1,-18.364,134.69499)" stroke-width=".19925" stroke-linecap="butt" stroke-miterlimit="10" stroke-linejoin="miter" fill="none" stroke="#929292" d="M43.15079 0V2.83505M49.3152 0V2.83505M55.4796 0V2.83505M61.644 0V2.83505M67.80838 0V2.83505M80.1372 0V2.83505M86.3016 0V2.83505M92.466 0V2.83505M98.63042 0V2.83505M104.7948 0V2.83505M117.12363 0V2.83505M123.28802 0V2.83505M129.45243 0V2.83505M135.61682 0V2.83505M141.78122 0V2.83505M154.11003 0V2.83505M160.27443 0V2.83505M166.43885 0V2.83505M172.60324 0V2.83505M178.76763 0V2.83505M191.09645 0V2.83505M197.26085 0V2.83505M203.42525 0V2.83505M209.58966 0V2.83505M215.75405 0V2.83505M228.08286 0V2.83505M234.24727 0V2.83505M240.41167 0V2.83505M246.57607 0V2.83505M252.74045 0V2.83505M265.06929 0V2.83505M271.23368 0V2.83505M277.39808 0V2.83505M283.56248 0V2.83505M289.72688 0V2.83505M302.0557 0V2.83505M308.2201 0V2.83505M314.3845 0V2.83505M320.5489 0V2.83505M326.7133 0V2.83505M43.15079 44.83246V41.99738M49.3152 44.83246V41.99738M55.4796 44.83246V41.99738M61.644 44.83246V41.99738M67.80838 44.83246V41.99738M80.1372 44.83246V41.99738M86.3016 44.83246V41.99738M92.466 44.83246V41.99738M98.63042 44.83246V41.99738M104.7948 44.83246V41.99738M117.12363 44.83246V41.99738M123.28802 44.83246V41.99738M129.45243 44.83246V41.99738M135.61682 44.83246V41.99738M141.78122 44.83246V41.99738M154.11003 44.83246V41.99738M160.27443 44.83246V41.99738M166.43885 44.83246V41.99738M172.60324 44.83246V41.99738M178.76763 44.83246V41.99738M191.09645 44.83246V41.99738M197.26085 44.83246V41.99738M203.42525 44.83246V41.99738M209.58966 44.83246V41.99738M215.75405 44.83246V41.99738M228.08286 44.83246V41.99738M234.24727 44.83246V41.99738M240.41167 44.83246V41.99738M246.57607 44.83246V41.99738M252.74045 44.83246V41.99738M265.06929 44.83246V41.99738M271.23368 44.83246V41.99738M277.39808 44.83246V41.99738M283.56248 44.83246V41.99738M289.72688 44.83246V41.99738M302.0557 44.83246V41.99738M308.2201 44.83246V41.99738M314.3845 44.83246V41.99738M320.5489 44.83246V41.99738M326.7133 44.83246V41.99738"/>
<path transform="matrix(1,0,0,-1,-18.364,134.69499)" stroke-width=".19925" stroke-linecap="butt" stroke-miterlimit="10" stroke-linejoin="miter" fill="none" stroke="#929292" d="M36.9864 0V4.25221M73.97282 0V4.25221M110.95923 0V4.25221M147.94565 0V4.25221M184.93206 0V4.25221M221.91847 0V4.25221M258.90489 0V4.25221M295.8913 0V4.25221M332.87773 0V4.25221M36.9864 44.83246V40.58022M73.97282 44.83246V40.58022M110.95923 44.83246V40.58022M147.94565 44.83246V40.58022M184.93206 44.83246V40.58022M221.91847 44.83246V40.58022M258.90489 44.83246V40.58022M295.8913 44.83246V40.58022M332.87773 44.83246V40.58022"/>
<path transform="matrix(1,0,0,-1,-18.364,134.69499)" stroke-width=".19925" stroke-linecap="butt" stroke-miterlimit="10" stroke-linejoin="miter" fill="none" stroke="#929292" d="M36.9864 0H39.82138M36.9864 14.17691H39.82138M36.9864 20.04955H39.82138M36.9864 24.55565H39.82138M36.9864 28.35425H39.82138M36.9864 31.70102H39.82138M36.9864 34.72675H39.82138M36.9864 37.50948H39.82138M36.9864 40.09903H39.82138M36.9864 42.53165H39.82138M332.87773 0H330.04273M332.87773 14.17691H330.04273M332.87773 20.04955H330.04273M332.87773 24.55565H330.04273M332.87773 28.35425H330.04273M332.87773 31.70102H330.04273M332.87773 34.72675H330.04273M332.87773 37.50948H330.04273M332.87773 40.09903H330.04273M332.87773 42.53165H330.04273"/>
<path transform="matrix(1,0,0,-1,-18.364,134.69499)" stroke-width=".19925" stroke-linecap="butt" stroke-miterlimit="10" stroke-linejoin="miter" fill="none" stroke="#929292" d="M36.9864 14.17691H41.23843M36.9864 31.70102H41.23843M332.87773 14.17691H328.62568M332.87773 31.70102H328.62568"/>
<path transform="matrix(1,0,0,-1,-18.364,134.69499)" stroke-width=".3985" stroke-linecap="butt" stroke-miterlimit="10" stroke-linejoin="miter" fill="none" stroke="#000000" d="M36.9864 0V44.83246H332.87773V0H36.9864Z"/>
<text xml:space="preserve" transform="matrix(1 0 -0 1 -.0000009536743 192.97599)" font-size="8.96638" font-family="LMRoman9"><tspan y="-69.57" x="3.321 7.9297196 10.494104">0.1</tspan></text>
<text xml:space="preserve" transform="matrix(1 0 -0 1 -.0000009536743 192.97599)" font-size="8.96638" font-family="LMRoman9"><tspan y="-87.094" x="3.321 7.9297196 10.494104">0.5</tspan></text>
<g clip-path="url(#clip_2)">
<path transform="matrix(1,0,0,-1,-18.364,134.69499)" stroke-width="1.19553" stroke-linecap="butt" stroke-dasharray="2.98883,2.98883" stroke-miterlimit="10" stroke-linejoin="miter" fill="none" stroke="#5778a4" d="M277.3981 0V896.6357"/>
<path transform="matrix(1,0,0,-1,-18.364,134.69499)" stroke-width="1.19553" stroke-linecap="butt" stroke-dasharray="2.98883,2.98883" stroke-miterlimit="10" stroke-linejoin="miter" fill="none" stroke="#e49444" d="M110.95923 0V896.6357"/>
<path transform="matrix(1,0,0,-1,-18.364,134.69499)" d="M94.32776 0H96.81008V0H94.32776ZM96.81007 0H99.292369V1.41296H96.81007ZM99.29237 0H101.7747V1.41296H99.29237ZM101.77469 0H104.25699V2.3432H101.77469ZM104.25699 0H106.73931V4.23894H104.25699ZM106.7393 0H109.2216V4.9454H106.7393ZM109.2216 0H111.703929V5.7395H109.2216ZM111.70392 0H114.18622V5.69586H111.70392ZM114.18622 0H116.66854V4.46825H114.18622ZM116.66853 0H119.150859V3.07954H116.66853ZM119.15085 0H121.63317V1.41296H119.15085ZM121.63316 0H124.11546V.9991H121.63316ZM124.11546 0H126.597789V0H124.11546ZM126.59778 0H129.08008V0H126.59778ZM129.08008 0H131.5624V0H129.08008ZM131.5624 0H134.0447V9.29239H131.5624ZM134.0447 0H136.52701V30.46959H134.0447ZM136.52701 0H139.00933V36.77853H136.52701ZM139.00933 0H141.49164V39.79022H139.00933ZM141.49166 0H143.97396V40.78757H141.49166ZM143.97396 0H146.45627V41.68332H143.97396ZM146.45627 0H148.93857V42.12994H146.45627ZM148.93857 0H151.42087V42.18913H148.93857ZM151.42087 0H153.90319V42.18913H151.42087ZM153.90319 0H156.3855V41.98158H153.90319ZM156.3855 0H158.86782V41.64137H156.3855ZM158.86782 0H161.35012V41.53336H158.86782ZM161.35012 0H163.83243V41.2076H161.35012ZM163.83243 0H166.31473V40.76917H163.83243ZM166.31473 0H168.79705V40.2145H166.31473ZM168.79705 0H171.27935V39.96548H168.79705ZM171.27935 0H173.76166V39.46277H171.27935ZM173.76166 0H176.24398V39.06865H173.76166ZM176.24398 0H178.72628V38.83806H176.24398ZM178.72628 0H181.20859V38.14426H178.72628ZM181.20859 0H183.69089V37.81567H181.20859ZM183.69089 0H186.1732V37.16333H183.69089ZM186.1732 0H188.6555V36.8531H186.1732ZM188.65552 0H191.13784V36.28667H188.65552ZM191.13784 0H193.62014V35.962H191.13784ZM193.62014 0H196.10245V35.43764H193.62014ZM196.10245 0H198.58477V34.98402H196.10245ZM198.58477 0H201.06707V34.52446H198.58477ZM201.06707 0H203.54938V33.74953H201.06707ZM203.54938 0H206.03168V33.56413H203.54938ZM206.03168 0H208.51399V33.26538H206.03168ZM208.51399 0H210.99629V32.29857H208.51399ZM210.99629 0H213.4786V31.74521H210.99629ZM213.4786 0H215.96092V31.57965H213.4786ZM215.96092 0H218.44324V30.86833H215.96092ZM218.44324 0H220.92554V30.46138H218.44324ZM220.92554 0H223.40784V29.90741H220.92554ZM223.40784 0H225.89015V29.1296H223.40784ZM225.89015 0H228.37245V28.89734H225.89015ZM228.37245 0H230.85477V28.20682H228.37245ZM230.85477 0H233.33708V27.56241H230.85477ZM233.33708 0H235.8194V26.90254H233.33708ZM235.81941 0H238.30171V26.32114H235.81941ZM238.30171 0H240.78403V25.38475H238.30171ZM240.78403 0H243.26633V24.91841H240.78403ZM243.26633 0H245.74864V24.00009H243.26633ZM245.74864 0H248.23094V23.18555H245.74864ZM248.23094 0H250.71326V22.34138H248.23094ZM250.71326 0H253.19557V21.42908H250.71326ZM253.19557 0H255.67789V20.2556H253.19557ZM255.67789 0H258.1602V18.78535H255.67789ZM258.1602 0H260.64253V17.1607H258.1602ZM260.6425 0H263.1248V15.20195H260.6425ZM263.1248 0H265.60713V10.99036H263.1248ZM265.60713 0H268.08943V4.3551H265.60713ZM268.08943 0H270.57176V2.91298H268.08943ZM270.57173 0H273.05403V3.9965H270.57173ZM273.05403 0H275.53636V4.73923H273.05403ZM275.53636 0H278.01866V5.23943H275.53636ZM278.01866 0H280.50099V5.69586H278.01866ZM280.50096 0H282.98326V3.9965H280.50096ZM282.98329 0H285.4656V3.53249H282.98329ZM285.46559 0H287.9479V3.07954H285.46559ZM287.9479 0H290.4302V1.57976H287.9479ZM290.4302 0H292.91255V1.2237H290.4302ZM292.9125 0H295.39485V.70644H292.9125ZM295.39485 0H300.35945V0H295.39485Z" fill="#e0e0e0"/>
<path transform="matrix(1,0,0,-1,-18.364,134.69499)" stroke-width=".3985" stroke-linecap="butt" stroke-miterlimit="10" stroke-linejoin="miter" fill="none" stroke="#e0e0e0" d="M94.32776 0H96.81008V0H94.32776ZM96.81007 0H99.292369V1.41296H96.81007ZM99.29237 0H101.7747V1.41296H99.29237ZM101.77469 0H104.25699V2.3432H101.77469ZM104.25699 0H106.73931V4.23894H104.25699ZM106.7393 0H109.2216V4.9454H106.7393ZM109.2216 0H111.703929V5.7395H109.2216ZM111.70392 0H114.18622V5.69586H111.70392ZM114.18622 0H116.66854V4.46825H114.18622ZM116.66853 0H119.150859V3.07954H116.66853ZM119.15085 0H121.63317V1.41296H119.15085ZM121.63316 0H124.11546V.9991H121.63316ZM124.11546 0H126.597789V0H124.11546ZM126.59778 0H129.08008V0H126.59778ZM129.08008 0H131.5624V0H129.08008ZM131.5624 0H134.0447V9.29239H131.5624ZM134.0447 0H136.52701V30.46959H134.0447ZM136.52701 0H139.00933V36.77853H136.52701ZM139.00933 0H141.49164V39.79022H139.00933ZM141.49166 0H143.97396V40.78757H141.49166ZM143.97396 0H146.45627V41.68332H143.97396ZM146.45627 0H148.93857V42.12994H146.45627ZM148.93857 0H151.42087V42.18913H148.93857ZM151.42087 0H153.90319V42.18913H151.42087ZM153.90319 0H156.3855V41.98158H153.90319ZM156.3855 0H158.86782V41.64137H156.3855ZM158.86782 0H161.35012V41.53336H158.86782ZM161.35012 0H163.83243V41.2076H161.35012ZM163.83243 0H166.31473V40.76917H163.83243ZM166.31473 0H168.79705V40.2145H166.31473ZM168.79705 0H171.27935V39.96548H168.79705ZM171.27935 0H173.76166V39.46277H171.27935ZM173.76166 0H176.24398V39.06865H173.76166ZM176.24398 0H178.72628V38.83806H176.24398ZM178.72628 0H181.20859V38.14426H178.72628ZM181.20859 0H183.69089V37.81567H181.20859ZM183.69089 0H186.1732V37.16333H183.69089ZM186.1732 0H188.6555V36.8531H186.1732ZM188.65552 0H191.13784V36.28667H188.65552ZM191.13784 0H193.62014V35.962H191.13784ZM193.62014 0H196.10245V35.43764H193.62014ZM196.10245 0H198.58477V34.98402H196.10245ZM198.58477 0H201.06707V34.52446H198.58477ZM201.06707 0H203.54938V33.74953H201.06707ZM203.54938 0H206.03168V33.56413H203.54938ZM206.03168 0H208.51399V33.26538H206.03168ZM208.51399 0H210.99629V32.29857H208.51399ZM210.99629 0H213.4786V31.74521H210.99629ZM213.4786 0H215.96092V31.57965H213.4786ZM215.96092 0H218.44324V30.86833H215.96092ZM218.44324 0H220.92554V30.46138H218.44324ZM220.92554 0H223.40784V29.90741H220.92554ZM223.40784 0H225.89015V29.1296H223.40784ZM225.89015 0H228.37245V28.89734H225.89015ZM228.37245 0H230.85477V28.20682H228.37245ZM230.85477 0H233.33708V27.56241H230.85477ZM233.33708 0H235.8194V26.90254H233.33708ZM235.81941 0H238.30171V26.32114H235.81941ZM238.30171 0H240.78403V25.38475H238.30171ZM240.78403 0H243.26633V24.91841H240.78403ZM243.26633 0H245.74864V24.00009H243.26633ZM245.74864 0H248.23094V23.18555H245.74864ZM248.23094 0H250.71326V22.34138H248.23094ZM250.71326 0H253.19557V21.42908H250.71326ZM253.19557 0H255.67789V20.2556H253.19557ZM255.67789 0H258.1602V18.78535H255.67789ZM258.1602 0H260.64253V17.1607H258.1602ZM260.6425 0H263.1248V15.20195H260.6425ZM263.1248 0H265.60713V10.99036H263.1248ZM265.60713 0H268.08943V4.3551H265.60713ZM268.08943 0H270.57176V2.91298H268.08943ZM270.57173 0H273.05403V3.9965H270.57173ZM273.05403 0H275.53636V4.73923H273.05403ZM275.53636 0H278.01866V5.23943H275.53636ZM278.01866 0H280.50099V5.69586H278.01866ZM280.50096 0H282.98326V3.9965H280.50096ZM282.98329 0H285.4656V3.53249H282.98329ZM285.46559 0H287.9479V3.07954H285.46559ZM287.9479 0H290.4302V1.57976H287.9479ZM290.4302 0H292.91255V1.2237H290.4302ZM292.9125 0H295.39485V.70644H292.9125ZM295.39485 0H300.35945V0H295.39485Z"/>
<path transform="matrix(1,0,0,-1,-18.364,134.69499)" d="M263.1248 0H265.60713V0H263.1248ZM265.60713 0H268.08943V1.41296H265.60713ZM268.08943 0H270.57176V2.64345H268.08943ZM270.57173 0H273.05403V3.9965H270.57173ZM273.05403 0H275.53636V4.73923H273.05403ZM275.53636 0H278.01866V5.23943H275.53636ZM278.01866 0H280.50099V5.69586H278.01866ZM280.50096 0H282.98326V3.9965H280.50096ZM282.98329 0H285.4656V3.53249H282.98329ZM285.46559 0H287.9479V3.07954H285.46559ZM287.9479 0H290.4302V1.57976H287.9479ZM290.4302 0H292.91255V1.2237H290.4302ZM292.9125 0H295.39485V.70644H292.9125ZM295.39485 0H300.35945V0H295.39485Z" fill="#7993b6"/>
<path transform="matrix(1,0,0,-1,-18.364,134.69499)" stroke-width=".3985" stroke-linecap="butt" stroke-miterlimit="10" stroke-linejoin="miter" fill="none" stroke="#7993b6" d="M263.1248 0H265.60713V0H263.1248ZM265.60713 0H268.08943V1.41296H265.60713ZM268.08943 0H270.57176V2.64345H268.08943ZM270.57173 0H273.05403V3.9965H270.57173ZM273.05403 0H275.53636V4.73923H273.05403ZM275.53636 0H278.01866V5.23943H275.53636ZM278.01866 0H280.50099V5.69586H278.01866ZM280.50096 0H282.98326V3.9965H280.50096ZM282.98329 0H285.4656V3.53249H282.98329ZM285.46559 0H287.9479V3.07954H285.46559ZM287.9479 0H290.4302V1.57976H287.9479ZM290.4302 0H292.91255V1.2237H290.4302ZM292.9125 0H295.39485V.70644H292.9125ZM295.39485 0H300.35945V0H295.39485Z"/>
<path transform="matrix(1,0,0,-1,-18.364,134.69499)" d="M94.32776 0H96.81008V0H94.32776ZM96.81007 0H99.292369V1.41296H96.81007ZM99.29237 0H101.7747V1.41296H99.29237ZM101.77469 0H104.25699V2.3432H101.77469ZM104.25699 0H106.73931V4.23894H104.25699ZM106.7393 0H109.2216V4.9454H106.7393ZM109.2216 0H111.703929V5.7395H109.2216ZM111.70392 0H114.18622V5.69586H111.70392ZM114.18622 0H116.66854V4.46825H114.18622ZM116.66853 0H119.150859V3.07954H116.66853ZM119.15085 0H121.63317V1.41296H119.15085ZM121.63316 0H124.11546V.9991H121.63316ZM124.11546 0H129.08008V0H124.11546Z" fill="#e9a969"/>
<path transform="matrix(1,0,0,-1,-18.364,134.69499)" stroke-width=".3985" stroke-linecap="butt" stroke-miterlimit="10" stroke-linejoin="miter" fill="none" stroke="#e9a969" d="M94.32776 0H96.81008V0H94.32776ZM96.81007 0H99.292369V1.41296H96.81007ZM99.29237 0H101.7747V1.41296H99.29237ZM101.77469 0H104.25699V2.3432H101.77469ZM104.25699 0H106.73931V4.23894H104.25699ZM106.7393 0H109.2216V4.9454H106.7393ZM109.2216 0H111.703929V5.7395H109.2216ZM111.70392 0H114.18622V5.69586H111.70392ZM114.18622 0H116.66854V4.46825H114.18622ZM116.66853 0H119.150859V3.07954H116.66853ZM119.15085 0H121.63317V1.41296H119.15085ZM121.63316 0H124.11546V.9991H121.63316ZM124.11546 0H129.08008V0H124.11546Z"/>
<path transform="matrix(1,0,0,-1,-18.364,134.69499)" stroke-width=".79701" stroke-linecap="butt" stroke-miterlimit="10" stroke-linejoin="miter" fill="none" stroke="#000000" d="M0 .00334 104.03584 .02536 104.40608 3.16458 104.77632 3.76521 106.25725 4.8917 108.84888 5.72472 111.81078 6.01921 114.03217 5.80113 115.5131 5.25153 116.62381 4.17354 116.99403 3.23798 117.36429 .01839 133.28437 .06197 133.65459 8.65413 134.02483 22.13046 134.39507 26.01672 134.76529 28.52008 135.13553 30.37518 135.50577 31.84297 136.24622 34.06667 136.98671 35.69815 137.35694 36.36452 138.09741 37.47964 139.20812 38.75446 140.31882 39.69691 141.05927 40.19118 141.79975 40.60156 142.54022 40.94278 143.28069 41.22614 144.02115 41.4605 144.76163 41.653 145.50209 41.8096 146.6128 41.98732 147.35327 42.0733 148.46398 42.16136 149.57466 42.20766 150.68538 42.21902 152.1663 42.18927 153.64723 42.11736 155.12819 42.01126 156.97934 41.83997 158.83054 41.6344 161.05193 41.35222 166.23523 40.58897 172.5292 39.54253 188.44928 36.6467 197.70514 34.88284 223.99178 29.46706 231.02623 27.81409 238.43093 25.88524 244.72489 24.00337 249.90819 22.17616 253.98076 20.44249 257.31288 18.68137 258.79383 17.73314 260.27476 16.62062 261.38545 15.62363 262.49617 14.4017 263.23664 13.38077 263.97709 12.06068 264.71757 10.07744 265.08778 8.37003 265.458 .0491 270.27107 .01915 270.6413 3.37248 271.01155 4.12901 271.752 4.83383 273.60319 5.48152 275.8246 5.63039 279.1567 5.34662 282.48884 4.56479 284.7102 3.36331 285.08045 2.93918 285.82093 .01169 369.8641 .00342"/>
</g>
<path transform="matrix(1,0,0,-1,-18.364,134.69499)" d="" fill="#996633"/>
<path transform="matrix(1,0,0,-1,-18.364,134.69499)" stroke-width=".3985" stroke-linecap="butt" stroke-miterlimit="10" stroke-linejoin="miter" fill="none" stroke="#e0e0e0" d=""/>
<path transform="matrix(1,0,0,-1,-18.364,134.69499)" d="" fill="#7993b6"/>
<path transform="matrix(1,0,0,-1,-18.364,134.69499)" stroke-width=".3985" stroke-linecap="butt" stroke-miterlimit="10" stroke-linejoin="miter" fill="none" stroke="#7993b6" d=""/>
<path transform="matrix(1,0,0,-1,-18.364,134.69499)" d="" fill="#0000cc"/>
<path transform="matrix(1,0,0,-1,-18.364,134.69499)" stroke-width=".3985" stroke-linecap="butt" stroke-miterlimit="10" stroke-linejoin="miter" fill="none" stroke="#e9a969" d=""/>
<text xml:space="preserve" transform="matrix(0 -1 1 0 389.732 453.13999)" font-size="9.96264" font-family="CMMI10" font-style="italic"><tspan y="-64.784" x="324.948">&#x03bb;</tspan></text>
<text xml:space="preserve" transform="matrix(0 -1 1 0 389.732 453.13999)" font-size="9.96264" font-family="CMR10"><tspan y="-64.784" x="333.527 344.0376">=4</tspan></text>
<text xml:space="preserve" transform="matrix(0 -1 1 0 389.732 453.13999)" font-size="9.96264" font-family="CMMI10" font-style="italic"><tspan y="-64.784" x="349.024">.</tspan></text>
<text xml:space="preserve" transform="matrix(0 -1 1 0 389.732 453.13999)" font-size="9.96264" font-family="CMR10"><tspan y="-64.784" x="351.792">0</tspan></text>
<path transform="matrix(1,0,0,-1,-18.364,179.527)" stroke-width=".09962" stroke-linecap="butt" stroke-miterlimit="10" stroke-linejoin="miter" fill="none" stroke="#f5f5f5" d="M43.15079 0V44.83246M49.3152 0V44.83246M55.4796 0V44.83246M61.644 0V44.83246M67.80838 0V44.83246M80.1372 0V44.83246M86.3016 0V44.83246M92.466 0V44.83246M98.63042 0V44.83246M104.7948 0V44.83246M117.12363 0V44.83246M123.28802 0V44.83246M129.45243 0V44.83246M135.61682 0V44.83246M141.78122 0V44.83246M154.11003 0V44.83246M160.27443 0V44.83246M166.43885 0V44.83246M172.60324 0V44.83246M178.76763 0V44.83246M191.09645 0V44.83246M197.26085 0V44.83246M203.42525 0V44.83246M209.58966 0V44.83246M215.75405 0V44.83246M228.08286 0V44.83246M234.24727 0V44.83246M240.41167 0V44.83246M246.57607 0V44.83246M252.74045 0V44.83246M265.06929 0V44.83246M271.23368 0V44.83246M277.39808 0V44.83246M283.56248 0V44.83246M289.72688 0V44.83246M302.0557 0V44.83246M308.2201 0V44.83246M314.3845 0V44.83246M320.5489 0V44.83246M326.7133 0V44.83246"/>
<path transform="matrix(1,0,0,-1,-18.364,179.527)" stroke-width=".19925" stroke-linecap="butt" stroke-miterlimit="10" stroke-linejoin="miter" fill="none" stroke="#cbcbcb" d="M36.9864 0V44.83246M73.97282 0V44.83246M110.95923 0V44.83246M147.94565 0V44.83246M184.93206 0V44.83246M221.91847 0V44.83246M258.90489 0V44.83246M295.8913 0V44.83246M332.87773 0V44.83246"/>
<path transform="matrix(1,0,0,-1,-18.364,179.527)" stroke-width=".09962" stroke-linecap="butt" stroke-miterlimit="10" stroke-linejoin="miter" fill="none" stroke="#f5f5f5" d="M36.9864 0H332.87773M36.9864 14.17691H332.87773M36.9864 20.04955H332.87773M36.9864 24.55565H332.87773M36.9864 28.35425H332.87773M36.9864 31.70102H332.87773M36.9864 34.72675H332.87773M36.9864 37.50948H332.87773M36.9864 40.09903H332.87773M36.9864 42.53165H332.87773"/>
<path transform="matrix(1,0,0,-1,-18.364,179.527)" stroke-width=".19925" stroke-linecap="butt" stroke-miterlimit="10" stroke-linejoin="miter" fill="none" stroke="#cbcbcb" d="M36.9864 14.17691H332.87773M36.9864 31.70102H332.87773"/>
<path transform="matrix(1,0,0,-1,-18.364,179.527)" stroke-width=".19925" stroke-linecap="butt" stroke-miterlimit="10" stroke-linejoin="miter" fill="none" stroke="#929292" d="M43.15079 0V2.83505M49.3152 0V2.83505M55.4796 0V2.83505M61.644 0V2.83505M67.80838 0V2.83505M80.1372 0V2.83505M86.3016 0V2.83505M92.466 0V2.83505M98.63042 0V2.83505M104.7948 0V2.83505M117.12363 0V2.83505M123.28802 0V2.83505M129.45243 0V2.83505M135.61682 0V2.83505M141.78122 0V2.83505M154.11003 0V2.83505M160.27443 0V2.83505M166.43885 0V2.83505M172.60324 0V2.83505M178.76763 0V2.83505M191.09645 0V2.83505M197.26085 0V2.83505M203.42525 0V2.83505M209.58966 0V2.83505M215.75405 0V2.83505M228.08286 0V2.83505M234.24727 0V2.83505M240.41167 0V2.83505M246.57607 0V2.83505M252.74045 0V2.83505M265.06929 0V2.83505M271.23368 0V2.83505M277.39808 0V2.83505M283.56248 0V2.83505M289.72688 0V2.83505M302.0557 0V2.83505M308.2201 0V2.83505M314.3845 0V2.83505M320.5489 0V2.83505M326.7133 0V2.83505M43.15079 44.83246V41.99738M49.3152 44.83246V41.99738M55.4796 44.83246V41.99738M61.644 44.83246V41.99738M67.80838 44.83246V41.99738M80.1372 44.83246V41.99738M86.3016 44.83246V41.99738M92.466 44.83246V41.99738M98.63042 44.83246V41.99738M104.7948 44.83246V41.99738M117.12363 44.83246V41.99738M123.28802 44.83246V41.99738M129.45243 44.83246V41.99738M135.61682 44.83246V41.99738M141.78122 44.83246V41.99738M154.11003 44.83246V41.99738M160.27443 44.83246V41.99738M166.43885 44.83246V41.99738M172.60324 44.83246V41.99738M178.76763 44.83246V41.99738M191.09645 44.83246V41.99738M197.26085 44.83246V41.99738M203.42525 44.83246V41.99738M209.58966 44.83246V41.99738M215.75405 44.83246V41.99738M228.08286 44.83246V41.99738M234.24727 44.83246V41.99738M240.41167 44.83246V41.99738M246.57607 44.83246V41.99738M252.74045 44.83246V41.99738M265.06929 44.83246V41.99738M271.23368 44.83246V41.99738M277.39808 44.83246V41.99738M283.56248 44.83246V41.99738M289.72688 44.83246V41.99738M302.0557 44.83246V41.99738M308.2201 44.83246V41.99738M314.3845 44.83246V41.99738M320.5489 44.83246V41.99738M326.7133 44.83246V41.99738"/>
<path transform="matrix(1,0,0,-1,-18.364,179.527)" stroke-width=".19925" stroke-linecap="butt" stroke-miterlimit="10" stroke-linejoin="miter" fill="none" stroke="#929292" d="M36.9864 0V4.25221M73.97282 0V4.25221M110.95923 0V4.25221M147.94565 0V4.25221M184.93206 0V4.25221M221.91847 0V4.25221M258.90489 0V4.25221M295.8913 0V4.25221M332.87773 0V4.25221M36.9864 44.83246V40.58022M73.97282 44.83246V40.58022M110.95923 44.83246V40.58022M147.94565 44.83246V40.58022M184.93206 44.83246V40.58022M221.91847 44.83246V40.58022M258.90489 44.83246V40.58022M295.8913 44.83246V40.58022M332.87773 44.83246V40.58022"/>
<path transform="matrix(1,0,0,-1,-18.364,179.527)" stroke-width=".19925" stroke-linecap="butt" stroke-miterlimit="10" stroke-linejoin="miter" fill="none" stroke="#929292" d="M36.9864 0H39.82138M36.9864 14.17691H39.82138M36.9864 20.04955H39.82138M36.9864 24.55565H39.82138M36.9864 28.35425H39.82138M36.9864 31.70102H39.82138M36.9864 34.72675H39.82138M36.9864 37.50948H39.82138M36.9864 40.09903H39.82138M36.9864 42.53165H39.82138M332.87773 0H330.04273M332.87773 14.17691H330.04273M332.87773 20.04955H330.04273M332.87773 24.55565H330.04273M332.87773 28.35425H330.04273M332.87773 31.70102H330.04273M332.87773 34.72675H330.04273M332.87773 37.50948H330.04273M332.87773 40.09903H330.04273M332.87773 42.53165H330.04273"/>
<path transform="matrix(1,0,0,-1,-18.364,179.527)" stroke-width=".19925" stroke-linecap="butt" stroke-miterlimit="10" stroke-linejoin="miter" fill="none" stroke="#929292" d="M36.9864 14.17691H41.23843M36.9864 31.70102H41.23843M332.87773 14.17691H328.62568M332.87773 31.70102H328.62568"/>
<path transform="matrix(1,0,0,-1,-18.364,179.527)" stroke-width=".3985" stroke-linecap="butt" stroke-miterlimit="10" stroke-linejoin="miter" fill="none" stroke="#000000" d="M36.9864 0V44.83246H332.87773V0H36.9864Z"/>
<text xml:space="preserve" transform="matrix(1 0 -0 1 .0000009536743 192.976)" font-size="8.96638" font-family="CMSY9" font-style="italic"><tspan y="-4.151" x="12.735">&#x2212;</tspan></text>
<text xml:space="preserve" transform="matrix(1 0 -0 1 .0000009536743 192.976)" font-size="8.96638" font-family="CMR9"><tspan y="-4.151" x="19.902">2</tspan></text>
<text xml:space="preserve" transform="matrix(1 0 -0 1 0 192.976)" font-size="8.96638" font-family="CMSY9" font-style="italic"><tspan y="-4.151" x="46.137">&#x2212;</tspan></text>
<text xml:space="preserve" transform="matrix(1 0 -0 1 0 192.976)" font-size="8.96638" font-family="CMR9"><tspan y="-4.151" x="53.304">1</tspan></text>
<text xml:space="preserve" transform="matrix(1 0 -0 1 0 192.976)" font-size="8.96638" font-family="CMMI9" font-style="italic"><tspan y="-4.151" x="57.912">.</tspan></text>
<text xml:space="preserve" transform="matrix(1 0 -0 1 0 192.976)" font-size="8.96638" font-family="CMR9"><tspan y="-4.151" x="60.472">5</tspan></text>
<text xml:space="preserve" transform="matrix(1 0 -0 1 0 192.976)" font-size="8.96638" font-family="CMSY9" font-style="italic"><tspan y="-4.151" x="86.706">&#x2212;</tspan></text>
<text xml:space="preserve" transform="matrix(1 0 -0 1 0 192.976)" font-size="8.96638" font-family="CMR9"><tspan y="-4.151" x="93.874">1</tspan></text>
<text xml:space="preserve" transform="matrix(1 0 -0 1 .0000076293949 192.976)" font-size="8.96638" font-family="CMSY9" font-style="italic"><tspan y="-4.151" x="120.109">&#x2212;</tspan></text>
<text xml:space="preserve" transform="matrix(1 0 -0 1 .0000076293949 192.976)" font-size="8.96638" font-family="CMR9"><tspan y="-4.151" x="127.276">0</tspan></text>
<text xml:space="preserve" transform="matrix(1 0 -0 1 .0000076293949 192.976)" font-size="8.96638" font-family="CMMI9" font-style="italic"><tspan y="-4.151" x="131.884">.</tspan></text>
<text xml:space="preserve" transform="matrix(1 0 -0 1 .0000076293949 192.976)" font-size="8.96638" font-family="CMR9"><tspan y="-4.151" x="134.444">5</tspan></text>
<text xml:space="preserve" transform="matrix(1 0 -0 1 .000015258789 192.976)" font-size="8.96638" font-family="CMR9"><tspan y="-4.151" x="164.262">0</tspan></text>
<text xml:space="preserve" transform="matrix(1 0 -0 1 0 192.976)" font-size="8.96638" font-family="CMR9"><tspan y="-4.151" x="197.664">0</tspan></text>
<text xml:space="preserve" transform="matrix(1 0 -0 1 0 192.976)" font-size="8.96638" font-family="CMMI9" font-style="italic"><tspan y="-4.151" x="202.272">.</tspan></text>
<text xml:space="preserve" transform="matrix(1 0 -0 1 0 192.976)" font-size="8.96638" font-family="CMR9"><tspan y="-4.151" x="204.832">5</tspan></text>
<text xml:space="preserve" transform="matrix(1 0 -0 1 0 192.976)" font-size="8.96638" font-family="CMR9"><tspan y="-4.151" x="238.234">1</tspan></text>
<text xml:space="preserve" transform="matrix(1 0 -0 1 0 192.976)" font-size="8.96638" font-family="CMR9"><tspan y="-4.151" x="271.636">1</tspan></text>
<text xml:space="preserve" transform="matrix(1 0 -0 1 0 192.976)" font-size="8.96638" font-family="CMMI9" font-style="italic"><tspan y="-4.151" x="276.244">.</tspan></text>
<text xml:space="preserve" transform="matrix(1 0 -0 1 0 192.976)" font-size="8.96638" font-family="CMR9"><tspan y="-4.151" x="278.804">5</tspan></text>
<text xml:space="preserve" transform="matrix(1 0 -0 1 0 192.976)" font-size="8.96638" font-family="CMR9"><tspan y="-4.151" x="312.206">2</tspan></text>
<text xml:space="preserve" transform="matrix(1 0 -0 1 -.0000009536743 192.976)" font-size="8.96638" font-family="LMRoman9"><tspan y="-24.738" x="3.321 7.9297196 10.494104">0.1</tspan></text>
<text xml:space="preserve" transform="matrix(1 0 -0 1 -.0000009536743 192.97599)" font-size="8.96638" font-family="LMRoman9"><tspan y="-42.262" x="3.321 7.9297196 10.494104">0.5</tspan></text>
<g clip-path="url(#clip_3)">
<path transform="matrix(1,0,0,-1,-18.364,179.527)" stroke-width="1.19553" stroke-linecap="butt" stroke-dasharray="2.98883,2.98883" stroke-miterlimit="10" stroke-linejoin="miter" fill="none" stroke="#5778a4" d="M288.49403 0V896.6357"/>
<path transform="matrix(1,0,0,-1,-18.364,179.527)" stroke-width="1.19553" stroke-linecap="butt" stroke-dasharray="2.98883,2.98883" stroke-miterlimit="10" stroke-linejoin="miter" fill="none" stroke="#e49444" d="M98.63043 0V896.6357"/>
<path transform="matrix(1,0,0,-1,-18.364,179.527)" d="M69.50467 0H71.986949V0H69.50467ZM71.98695 0H74.46928V.70644H71.98695ZM74.46927 0H76.95159V.70644H74.46927ZM76.95158 0H79.4339V0H76.95158ZM79.4339 0H81.9162V.70644H79.4339ZM81.9162 0H84.39852V1.73053H81.9162ZM84.39851 0H86.88084V1.99828H84.39851ZM86.88083 0H89.36313V2.64345H86.88083ZM89.36313 0H91.84545V2.91298H89.36313ZM91.84544 0H94.32774V3.53249H91.84544ZM94.32776 0H96.81008V4.6327H94.32776ZM96.81007 0H99.292369V4.29744H96.81007ZM99.29237 0H101.7747V4.29744H99.29237ZM101.77469 0H104.25699V4.73923H101.77469ZM104.25699 0H106.73931V4.4121H104.25699ZM106.7393 0H109.2216V2.91298H106.7393ZM109.2216 0H111.703929V1.57976H109.2216ZM111.70392 0H114.18622V1.2237H111.70392ZM114.18622 0H116.66854V.70644H114.18622ZM116.66853 0H119.150859V0H116.66853ZM119.15085 0H121.63317V0H119.15085ZM121.63316 0H124.11546V0H121.63316ZM124.11546 0H126.597789V0H124.11546ZM126.59778 0H129.08008V0H126.59778ZM129.08008 0H131.5624V0H129.08008ZM131.5624 0H134.0447V9.1024H131.5624ZM134.0447 0H136.52701V30.35466H134.0447ZM136.52701 0H139.00933V37.01529H136.52701ZM139.00933 0H141.49164V39.49437H139.00933ZM141.49166 0H143.97396V40.91583H141.49166ZM143.97396 0H146.45627V41.6593H143.97396ZM146.45627 0H148.93857V42.16547H146.45627ZM148.93857 0H151.42087V42.25418H148.93857ZM151.42087 0H153.90319V42.2128H151.42087ZM153.90319 0H156.3855V41.91016H153.90319ZM156.3855 0H158.86782V41.79091H156.3855ZM158.86782 0H161.35012V41.47322H158.86782ZM161.35012 0H163.83243V41.11662H161.35012ZM163.83243 0H166.31473V40.75693H163.83243ZM166.31473 0H168.79705V40.31363H166.31473ZM168.79705 0H171.27935V39.92801H168.79705ZM171.27935 0H173.76166V39.67715H171.27935ZM173.76166 0H176.24398V39.03035H173.76166ZM176.24398 0H178.72628V38.73509H176.24398ZM178.72628 0H181.20859V38.14426H178.72628ZM181.20859 0H183.69089V37.57071H181.20859ZM183.69089 0H186.1732V37.45099H183.69089ZM186.1732 0H188.6555V37.06242H186.1732ZM188.65552 0H191.13784V36.28667H188.65552ZM191.13784 0H193.62014V35.85077H191.13784ZM193.62014 0H196.10245V35.2541H193.62014ZM196.10245 0H198.58477V35.03397H196.10245ZM198.58477 0H201.06707V34.53896H198.58477ZM201.06707 0H203.54938V33.71997H201.06707ZM203.54938 0H206.03168V33.58644H203.54938ZM206.03168 0H208.51399V33.07733H206.03168ZM208.51399 0H210.99629V32.44502H208.51399ZM210.99629 0H213.4786V31.77661H210.99629ZM213.4786 0H215.96092V31.58759H213.4786ZM215.96092 0H218.44324V31.05373H215.96092ZM218.44324 0H220.92554V30.4204H218.44324ZM220.92554 0H223.40784V29.59703H220.92554ZM223.40784 0H225.89015V29.32599H223.40784ZM225.89015 0H228.37245V28.74144H225.89015ZM228.37245 0H230.85477V28.2775H228.37245ZM230.85477 0H233.33708V27.44447H230.85477ZM233.33708 0H235.8194V27.1151H233.33708ZM235.81941 0H238.30171V26.2261H235.81941ZM238.30171 0H240.78403V25.25662H238.30171ZM240.78403 0H243.26633V24.93839H240.78403ZM243.26633 0H245.74864V24.16591H243.26633ZM245.74864 0H248.23094V23.07767H245.74864ZM248.23094 0H250.71326V22.2069H248.23094ZM250.71326 0H253.19557V21.21844H250.71326ZM253.19557 0H255.67789V20.41519H253.19557ZM255.67789 0H258.1602V18.82516H255.67789ZM258.1602 0H260.64253V16.95589H258.1602ZM260.6425 0H263.1248V15.02032H260.6425ZM263.1248 0H265.60713V11.6087H263.1248ZM265.60713 0H268.08943V4.57852H265.60713ZM268.08943 0H270.57176V1.2237H268.08943ZM270.57173 0H273.05403V1.2237H270.57173ZM273.05403 0H275.53636V1.2237H273.05403ZM275.53636 0H278.01866V2.64345H275.53636ZM278.01866 0H280.50099V3.07954H278.01866ZM280.50096 0H282.98326V3.7384H280.50096ZM282.98329 0H285.4656V3.7384H282.98329ZM285.46559 0H287.9479V4.8434H285.46559ZM287.9479 0H290.4302V4.73923H287.9479ZM290.4302 0H292.91255V2.82596H290.4302ZM292.9125 0H295.39485V3.53249H292.9125ZM295.39485 0H297.87718V3.6024H295.39485ZM297.87715 0H300.3594V1.8692H297.87715ZM300.35945 0H302.84178V3.15953H300.35945ZM302.84175 0H305.32405V1.73053H302.84175ZM305.32405 0H307.80638V1.73053H305.32405ZM307.80638 0H310.2887V.9991H307.80638ZM310.28868 0H312.771V.9991H310.28868ZM312.771 0H315.25334V.9991H312.771ZM315.2533 0H320.2179V0H315.2533Z" fill="#e0e0e0"/>
<path transform="matrix(1,0,0,-1,-18.364,179.527)" stroke-width=".3985" stroke-linecap="butt" stroke-miterlimit="10" stroke-linejoin="miter" fill="none" stroke="#e0e0e0" d="M69.50467 0H71.986949V0H69.50467ZM71.98695 0H74.46928V.70644H71.98695ZM74.46927 0H76.95159V.70644H74.46927ZM76.95158 0H79.4339V0H76.95158ZM79.4339 0H81.9162V.70644H79.4339ZM81.9162 0H84.39852V1.73053H81.9162ZM84.39851 0H86.88084V1.99828H84.39851ZM86.88083 0H89.36313V2.64345H86.88083ZM89.36313 0H91.84545V2.91298H89.36313ZM91.84544 0H94.32774V3.53249H91.84544ZM94.32776 0H96.81008V4.6327H94.32776ZM96.81007 0H99.292369V4.29744H96.81007ZM99.29237 0H101.7747V4.29744H99.29237ZM101.77469 0H104.25699V4.73923H101.77469ZM104.25699 0H106.73931V4.4121H104.25699ZM106.7393 0H109.2216V2.91298H106.7393ZM109.2216 0H111.703929V1.57976H109.2216ZM111.70392 0H114.18622V1.2237H111.70392ZM114.18622 0H116.66854V.70644H114.18622ZM116.66853 0H119.150859V0H116.66853ZM119.15085 0H121.63317V0H119.15085ZM121.63316 0H124.11546V0H121.63316ZM124.11546 0H126.597789V0H124.11546ZM126.59778 0H129.08008V0H126.59778ZM129.08008 0H131.5624V0H129.08008ZM131.5624 0H134.0447V9.1024H131.5624ZM134.0447 0H136.52701V30.35466H134.0447ZM136.52701 0H139.00933V37.01529H136.52701ZM139.00933 0H141.49164V39.49437H139.00933ZM141.49166 0H143.97396V40.91583H141.49166ZM143.97396 0H146.45627V41.6593H143.97396ZM146.45627 0H148.93857V42.16547H146.45627ZM148.93857 0H151.42087V42.25418H148.93857ZM151.42087 0H153.90319V42.2128H151.42087ZM153.90319 0H156.3855V41.91016H153.90319ZM156.3855 0H158.86782V41.79091H156.3855ZM158.86782 0H161.35012V41.47322H158.86782ZM161.35012 0H163.83243V41.11662H161.35012ZM163.83243 0H166.31473V40.75693H163.83243ZM166.31473 0H168.79705V40.31363H166.31473ZM168.79705 0H171.27935V39.92801H168.79705ZM171.27935 0H173.76166V39.67715H171.27935ZM173.76166 0H176.24398V39.03035H173.76166ZM176.24398 0H178.72628V38.73509H176.24398ZM178.72628 0H181.20859V38.14426H178.72628ZM181.20859 0H183.69089V37.57071H181.20859ZM183.69089 0H186.1732V37.45099H183.69089ZM186.1732 0H188.6555V37.06242H186.1732ZM188.65552 0H191.13784V36.28667H188.65552ZM191.13784 0H193.62014V35.85077H191.13784ZM193.62014 0H196.10245V35.2541H193.62014ZM196.10245 0H198.58477V35.03397H196.10245ZM198.58477 0H201.06707V34.53896H198.58477ZM201.06707 0H203.54938V33.71997H201.06707ZM203.54938 0H206.03168V33.58644H203.54938ZM206.03168 0H208.51399V33.07733H206.03168ZM208.51399 0H210.99629V32.44502H208.51399ZM210.99629 0H213.4786V31.77661H210.99629ZM213.4786 0H215.96092V31.58759H213.4786ZM215.96092 0H218.44324V31.05373H215.96092ZM218.44324 0H220.92554V30.4204H218.44324ZM220.92554 0H223.40784V29.59703H220.92554ZM223.40784 0H225.89015V29.32599H223.40784ZM225.89015 0H228.37245V28.74144H225.89015ZM228.37245 0H230.85477V28.2775H228.37245ZM230.85477 0H233.33708V27.44447H230.85477ZM233.33708 0H235.8194V27.1151H233.33708ZM235.81941 0H238.30171V26.2261H235.81941ZM238.30171 0H240.78403V25.25662H238.30171ZM240.78403 0H243.26633V24.93839H240.78403ZM243.26633 0H245.74864V24.16591H243.26633ZM245.74864 0H248.23094V23.07767H245.74864ZM248.23094 0H250.71326V22.2069H248.23094ZM250.71326 0H253.19557V21.21844H250.71326ZM253.19557 0H255.67789V20.41519H253.19557ZM255.67789 0H258.1602V18.82516H255.67789ZM258.1602 0H260.64253V16.95589H258.1602ZM260.6425 0H263.1248V15.02032H260.6425ZM263.1248 0H265.60713V11.6087H263.1248ZM265.60713 0H268.08943V4.57852H265.60713ZM268.08943 0H270.57176V1.2237H268.08943ZM270.57173 0H273.05403V1.2237H270.57173ZM273.05403 0H275.53636V1.2237H273.05403ZM275.53636 0H278.01866V2.64345H275.53636ZM278.01866 0H280.50099V3.07954H278.01866ZM280.50096 0H282.98326V3.7384H280.50096ZM282.98329 0H285.4656V3.7384H282.98329ZM285.46559 0H287.9479V4.8434H285.46559ZM287.9479 0H290.4302V4.73923H287.9479ZM290.4302 0H292.91255V2.82596H290.4302ZM292.9125 0H295.39485V3.53249H292.9125ZM295.39485 0H297.87718V3.6024H295.39485ZM297.87715 0H300.3594V1.8692H297.87715ZM300.35945 0H302.84178V3.15953H300.35945ZM302.84175 0H305.32405V1.73053H302.84175ZM305.32405 0H307.80638V1.73053H305.32405ZM307.80638 0H310.2887V.9991H307.80638ZM310.28868 0H312.771V.9991H310.28868ZM312.771 0H315.25334V.9991H312.771ZM315.2533 0H320.2179V0H315.2533Z"/>
<path transform="matrix(1,0,0,-1,-18.364,179.527)" d="M265.60713 0H268.08943V0H265.60713ZM268.08943 0H270.57176V.70644H268.08943ZM270.57173 0H273.05403V1.2237H270.57173ZM273.05403 0H275.53636V1.2237H273.05403ZM275.53636 0H278.01866V2.64345H275.53636ZM278.01866 0H280.50099V3.07954H278.01866ZM280.50096 0H282.98326V3.7384H280.50096ZM282.98329 0H285.4656V3.7384H282.98329ZM285.46559 0H287.9479V4.8434H285.46559ZM287.9479 0H290.4302V4.73923H287.9479ZM290.4302 0H292.91255V2.82596H290.4302ZM292.9125 0H295.39485V3.53249H292.9125ZM295.39485 0H297.87718V3.6024H295.39485ZM297.87715 0H300.3594V1.8692H297.87715ZM300.35945 0H302.84178V3.15953H300.35945ZM302.84175 0H305.32405V1.73053H302.84175ZM305.32405 0H307.80638V1.73053H305.32405ZM307.80638 0H310.2887V.9991H307.80638ZM310.28868 0H312.771V.9991H310.28868ZM312.771 0H315.25334V.9991H312.771ZM315.2533 0H320.2179V0H315.2533Z" fill="#7993b6"/>
<path transform="matrix(1,0,0,-1,-18.364,179.527)" stroke-width=".3985" stroke-linecap="butt" stroke-miterlimit="10" stroke-linejoin="miter" fill="none" stroke="#7993b6" d="M265.60713 0H268.08943V0H265.60713ZM268.08943 0H270.57176V.70644H268.08943ZM270.57173 0H273.05403V1.2237H270.57173ZM273.05403 0H275.53636V1.2237H273.05403ZM275.53636 0H278.01866V2.64345H275.53636ZM278.01866 0H280.50099V3.07954H278.01866ZM280.50096 0H282.98326V3.7384H280.50096ZM282.98329 0H285.4656V3.7384H282.98329ZM285.46559 0H287.9479V4.8434H285.46559ZM287.9479 0H290.4302V4.73923H287.9479ZM290.4302 0H292.91255V2.82596H290.4302ZM292.9125 0H295.39485V3.53249H292.9125ZM295.39485 0H297.87718V3.6024H295.39485ZM297.87715 0H300.3594V1.8692H297.87715ZM300.35945 0H302.84178V3.15953H300.35945ZM302.84175 0H305.32405V1.73053H302.84175ZM305.32405 0H307.80638V1.73053H305.32405ZM307.80638 0H310.2887V.9991H307.80638ZM310.28868 0H312.771V.9991H310.28868ZM312.771 0H315.25334V.9991H312.771ZM315.2533 0H320.2179V0H315.2533Z"/>
<path transform="matrix(1,0,0,-1,-18.364,179.527)" d="M69.50467 0H71.986949V0H69.50467ZM71.98695 0H74.46928V.70644H71.98695ZM74.46927 0H76.95159V.70644H74.46927ZM76.95158 0H79.4339V0H76.95158ZM79.4339 0H81.9162V.70644H79.4339ZM81.9162 0H84.39852V1.73053H81.9162ZM84.39851 0H86.88084V1.99828H84.39851ZM86.88083 0H89.36313V2.64345H86.88083ZM89.36313 0H91.84545V2.91298H89.36313ZM91.84544 0H94.32774V3.53249H91.84544ZM94.32776 0H96.81008V4.6327H94.32776ZM96.81007 0H99.292369V4.29744H96.81007ZM99.29237 0H101.7747V4.29744H99.29237ZM101.77469 0H104.25699V4.73923H101.77469ZM104.25699 0H106.73931V4.4121H104.25699ZM106.7393 0H109.2216V2.91298H106.7393ZM109.2216 0H111.703929V1.57976H109.2216ZM111.70392 0H114.18622V1.2237H111.70392ZM114.18622 0H116.66854V.70644H114.18622ZM116.66853 0H121.63316V0H116.66853Z" fill="#e9a969"/>
<path transform="matrix(1,0,0,-1,-18.364,179.527)" stroke-width=".3985" stroke-linecap="butt" stroke-miterlimit="10" stroke-linejoin="miter" fill="none" stroke="#e9a969" d="M69.50467 0H71.986949V0H69.50467ZM71.98695 0H74.46928V.70644H71.98695ZM74.46927 0H76.95159V.70644H74.46927ZM76.95158 0H79.4339V0H76.95158ZM79.4339 0H81.9162V.70644H79.4339ZM81.9162 0H84.39852V1.73053H81.9162ZM84.39851 0H86.88084V1.99828H84.39851ZM86.88083 0H89.36313V2.64345H86.88083ZM89.36313 0H91.84545V2.91298H89.36313ZM91.84544 0H94.32774V3.53249H91.84544ZM94.32776 0H96.81008V4.6327H94.32776ZM96.81007 0H99.292369V4.29744H96.81007ZM99.29237 0H101.7747V4.29744H99.29237ZM101.77469 0H104.25699V4.73923H101.77469ZM104.25699 0H106.73931V4.4121H104.25699ZM106.7393 0H109.2216V2.91298H106.7393ZM109.2216 0H111.703929V1.57976H109.2216ZM111.70392 0H114.18622V1.2237H111.70392ZM114.18622 0H116.66854V.70644H114.18622ZM116.66853 0H121.63316V0H116.66853Z"/>
<path transform="matrix(1,0,0,-1,-18.364,179.527)" stroke-width=".79701" stroke-linecap="butt" stroke-miterlimit="10" stroke-linejoin="miter" fill="none" stroke="#000000" d="M0 .00334 88.11577 .01122 88.486 2.04521 89.22647 2.96935 91.8181 4.05698 95.89069 4.73257 99.96327 4.94287 102.92514 4.80194 105.51677 4.27103 106.99771 3.4194 108.1084 .01318 133.28437 .06216 133.65459 9.57033 134.02483 22.18958 134.39507 26.05037 134.76529 28.54375 135.13553 30.39325 135.50577 31.85739 136.24622 34.07666 136.98671 35.70547 137.35694 36.37082 138.09741 37.48444 139.20812 38.7576 140.31882 39.69897 141.05927 40.19261 141.79975 40.60258 142.54022 40.9434 143.28069 41.22641 144.02115 41.4605 144.76163 41.6528 145.50209 41.80919 146.6128 41.98663 147.35327 42.07248 148.46398 42.16026 149.57466 42.20638 150.68538 42.21765 152.1663 42.18768 153.64723 42.11566 155.12819 42.00949 156.97934 41.83806 158.83054 41.63234 161.05193 41.35016 166.23523 40.58672 172.5292 39.54013 188.44928 36.6439 197.70514 34.87984 230.65599 27.90042 238.06069 25.98306 244.35468 24.11769 249.53797 22.31395 251.75937 21.42676 253.98076 20.44016 257.31288 18.68376 258.79383 17.74007 260.27476 16.63531 261.38545 15.64845 262.49617 14.44473 263.23664 13.44568 263.97709 12.16713 264.71757 10.29341 265.08778 8.76823 265.458 4.97865 265.82826 .02722 278.046 .01701 278.41624 2.6223 278.78645 3.12915 280.2674 3.97626 282.85905 4.47804 286.19117 4.62102 291.0042 4.41196 296.18748 3.74059 299.5196 2.68929 301.00053 .00853 369.8641 .00342"/>
</g>
<path transform="matrix(1,0,0,-1,-18.364,179.527)" d="" fill="#996633"/>
<path transform="matrix(1,0,0,-1,-18.364,179.527)" stroke-width=".3985" stroke-linecap="butt" stroke-miterlimit="10" stroke-linejoin="miter" fill="none" stroke="#e0e0e0" d=""/>
<path transform="matrix(1,0,0,-1,-18.364,179.527)" d="" fill="#7993b6"/>
<path transform="matrix(1,0,0,-1,-18.364,179.527)" stroke-width=".3985" stroke-linecap="butt" stroke-miterlimit="10" stroke-linejoin="miter" fill="none" stroke="#7993b6" d=""/>
<path transform="matrix(1,0,0,-1,-18.364,179.527)" d="" fill="#0000cc"/>
<path transform="matrix(1,0,0,-1,-18.364,179.527)" stroke-width=".3985" stroke-linecap="butt" stroke-miterlimit="10" stroke-linejoin="miter" fill="none" stroke="#e9a969" d=""/>
<text xml:space="preserve" transform="matrix(0 -1 1 0 344.9 497.972)" font-size="9.96264" font-family="CMMI10" font-style="italic"><tspan y="-19.952" x="324.948">&#x03bb;</tspan></text>
<text xml:space="preserve" transform="matrix(0 -1 1 0 344.9 497.972)" font-size="9.96264" font-family="CMR10"><tspan y="-19.952" x="333.527 344.0376">=6</tspan></text>
<text xml:space="preserve" transform="matrix(0 -1 1 0 344.9 497.972)" font-size="9.96264" font-family="CMMI10" font-style="italic"><tspan y="-19.952" x="349.024">.</tspan></text>
<text xml:space="preserve" transform="matrix(0 -1 1 0 344.9 497.972)" font-size="9.96264" font-family="CMR10"><tspan y="-19.952" x="351.792">0</tspan></text>
</svg>
