<svg class="plot-d6a7b5" fill="currentColor" font-family="system-ui, sans-serif" font-size="10" text-anchor="middle" width="640" height="400" viewBox="0 0 640 400" xmlns="http://www.w3.org/2000/svg" xmlns:xlink="http://www.w3.org/1999/xlink"><style>:where(.plot-d6a7b5) {
  --plot-background: white;
  display: block;
  height: auto;
  height: intrinsic;
  max-width: 100%;
}
:where(.plot-d6a7b5 text),
:where(.plot-d6a7b5 tspan) {
  white-space: pre;
}</style><g aria-label="y-grid" stroke="currentColor" stroke-opacity="0.1" transform="translate(0,0.5)"><line x1="40" x2="620" y1="348.94798752393604" y2="348.94798752393604"/><line x1="40" x2="620" y1="322.0487333578242" y2="322.0487333578242"/><line x1="40" x2="620" y1="295.14947919171243" y2="295.14947919171243"/><line x1="40" x2="620" y1="268.25022502560057" y2="268.25022502560057"/><line x1="40" x2="620" y1="241.35097085948874" y2="241.35097085948874"/><line x1="40" x2="620" y1="214.4517166933769" y2="214.4517166933769"/><line x1="40" x2="620" y1="187.55246252726508" y2="187.55246252726508"/><line x1="40" x2="620" y1="160.6532083611532" y2="160.6532083611532"/><line x1="40" x2="620" y1="133.7539541950414" y2="133.7539541950414"/><line x1="40" x2="620" y1="106.85470002892956" y2="106.85470002892956"/><line x1="40" x2="620" y1="79.95544586281773" y2="79.95544586281773"/><line x1="40" x2="620" y1="53.05619169670592" y2="53.05619169670592"/><line x1="40" x2="620" y1="26.156937530594053" y2="26.156937530594053"/></g><g aria-label="y-axis tick" fill="none" stroke="currentColor" transform="translate(0,0.5)"><path transform="translate(40,348.94798752393604)" d="M0,0L-6,0"/><path transform="translate(40,322.0487333578242)" d="M0,0L-6,0"/><path transform="translate(40,295.14947919171243)" d="M0,0L-6,0"/><path transform="translate(40,268.25022502560057)" d="M0,0L-6,0"/><path transform="translate(40,241.35097085948874)" d="M0,0L-6,0"/><path transform="translate(40,214.4517166933769)" d="M0,0L-6,0"/><path transform="translate(40,187.55246252726508)" d="M0,0L-6,0"/><path transform="translate(40,160.6532083611532)" d="M0,0L-6,0"/><path transform="translate(40,133.7539541950414)" d="M0,0L-6,0"/><path transform="translate(40,106.85470002892956)" d="M0,0L-6,0"/><path transform="translate(40,79.95544586281773)" d="M0,0L-6,0"/><path transform="translate(40,53.05619169670592)" d="M0,0L-6,0"/><path transform="translate(40,26.156937530594053)" d="M0,0L-6,0"/></g><g aria-label="y-axis tick label" text-anchor="end" font-variant="tabular-nums" transform="translate(-8.5,0.5)"><text y="0.32em" transform="translate(40,348.94798752393604)">0.2</text><text y="0.32em" transform="translate(40,322.0487333578242)">0.4</text><text y="0.32em" transform="translate(40,295.14947919171243)">0.6</text><text y="0.32em" transform="translate(40,268.25022502560057)">0.8</text><text y="0.32em" transform="translate(40,241.35097085948874)">1.0</text><text y="0.32em" transform="translate(40,214.4517166933769)">1.2</text><text y="0.32em" transform="translate(40,187.55246252726508)">1.4</text><text y="0.32em" transform="translate(40,160.6532083611532)">1.6</text><text y="0.32em" transform="translate(40,133.7539541950414)">1.8</text><text y="0.32em" transform="translate(40,106.85470002892956)">2.0</text><text y="0.32em" transform="translate(40,79.95544586281773)">2.2</text><text y="0.32em" transform="translate(40,53.05619169670592)">2.4</text><text y="0.32em" transform="translate(40,26.156937530594053)">2.6</text></g><g aria-label="y-axis label" text-anchor="start" transform="translate(-36.5,-16.5)"><text y="0.71em" transform="translate(40,20)">↑ Generalization Error</text></g><g aria-label="x-grid" stroke="currentColor" stroke-opacity="0.1" transform="translate(0.5,0)"><line x1="124.36363636363635" x2="124.36363636363635" y1="20" y2="370"/><line x1="229.8181818181818" x2="229.8181818181818" y1="20" y2="370"/><line x1="335.27272727272725" x2="335.27272727272725" y1="20" y2="370"/><line x1="440.72727272727275" x2="440.72727272727275" y1="20" y2="370"/><line x1="546.1818181818181" x2="546.1818181818181" y1="20" y2="370"/></g><g aria-label="x-axis tick" fill="none" stroke="currentColor" transform="translate(0.5,0)"><path transform="translate(124.36363636363635,370)" d="M0,0L0,6"/><path transform="translate(229.8181818181818,370)" d="M0,0L0,6"/><path transform="translate(335.27272727272725,370)" d="M0,0L0,6"/><path transform="translate(440.72727272727275,370)" d="M0,0L0,6"/><path transform="translate(546.1818181818181,370)" d="M0,0L0,6"/></g><g aria-label="x-axis tick label" font-variant="tabular-nums" transform="translate(0.5,9.5)"><text y="0.71em" transform="translate(124.36363636363635,370)">10</text><text y="0.71em" transform="translate(229.8181818181818,370)">20</text><text y="0.71em" transform="translate(335.27272727272725,370)">30</text><text y="0.71em" transform="translate(440.72727272727275,370)">40</text><text y="0.71em" transform="translate(546.1818181818181,370)">50</text></g><g aria-label="x-axis label" text-anchor="end" transform="translate(17.5,27.5)"><text transform="translate(620,370)">Number of Samples →</text></g><g aria-label="line" fill="none" stroke-width="1.5" stroke-linejoin="round" stroke-linecap="round" transform="translate(0.5,0.5)"><path stroke="rgb(35, 23, 27)" d="M40,21.146L50.545,61.259L61.091,96.899L71.636,128.576L82.182,156.736L92.727,181.758L103.273,203.965L113.818,223.618L124.364,240.917L134.909,255.993L145.455,268.89L156,279.538L166.545,287.677L177.091,292.714L187.636,293.375L198.182,286.775L208.727,265.63L219.273,210.695L229.818,138.931L240.364,213.938L250.909,274.952L261.455,304.763L272,321.384L282.545,331.82L293.091,338.942L303.636,344.098L314.182,347.999L324.727,351.051L335.273,353.502L345.818,355.514L356.364,357.195L366.909,358.62L377.455,359.843L388,360.904L398.545,361.833L409.091,362.654L419.636,363.384L430.182,364.038L440.727,364.626L451.273,365.159L461.818,365.643L472.364,366.086L482.909,366.491L493.455,366.865L504,367.21L514.545,367.529L525.091,367.825L535.636,368.101L546.182,368.359L556.727,368.6L567.273,368.826L577.818,369.039L588.364,369.239L598.909,369.427L609.455,369.606L620,369.774"/><path stroke="rgb(64, 118, 245)" d="M40,21.13L50.545,61.238L61.091,96.874L71.636,128.549L82.182,156.708L92.727,181.732L103.273,203.943L113.818,223.602L124.364,240.912L134.909,256.006L145.455,268.934L156,279.635L166.545,287.87L177.091,293.1L187.636,294.194L198.182,288.743L208.727,271.457L219.273,233.339L229.818,198.275L240.364,237.894L250.909,281.851L261.455,307.403L272,322.647L282.545,332.522L293.091,339.374L303.636,344.385L314.182,348.2L324.727,351.198L335.273,353.614L345.818,355.601L356.364,357.264L366.909,358.676L377.455,359.889L388,360.943L398.545,361.866L409.091,362.682L419.636,363.409L430.182,364.059L440.727,364.645L451.273,365.176L461.818,365.658L472.364,366.099L482.909,366.504L493.455,366.876L504,367.219L514.545,367.538L525.091,367.834L535.636,368.109L546.182,368.366L556.727,368.607L567.273,368.832L577.818,369.045L588.364,369.244L598.909,369.432L609.455,369.61L620,369.778"/><path stroke="rgb(38, 208, 205)" d="M40,21.102L50.545,61.199L61.091,96.829L71.636,128.501L82.182,156.658L92.727,181.685L103.273,203.902L113.818,223.573L124.364,240.903L134.909,256.028L145.455,269.009L156,279.799L166.545,288.197L177.091,293.746L187.636,295.532L198.182,291.802L208.727,279.543L219.273,257.049L229.818,242.38L240.364,262.718L250.909,291.259L261.455,311.443L272,324.685L282.545,333.686L293.091,340.103L303.636,344.873L314.182,348.545L324.727,351.452L335.273,353.807L345.818,355.752L356.364,357.385L366.909,358.774L377.455,359.97L388,361.011L398.545,361.924L409.091,362.732L419.636,363.452L430.182,364.097L440.727,364.678L451.273,365.205L461.818,365.684L472.364,366.123L482.909,366.525L493.455,366.895L504,367.237L514.545,367.554L525.091,367.848L535.636,368.122L546.182,368.379L556.727,368.618L567.273,368.843L577.818,369.054L588.364,369.253L598.909,369.441L609.455,369.618L620,369.786"/><path stroke="rgb(95, 252, 115)" d="M40,21.051L50.545,61.132L61.091,96.749L71.636,128.414L82.182,156.57L92.727,181.6L103.273,203.827L113.818,223.519L124.364,240.881L134.909,256.061L145.455,269.129L156,280.068L166.545,288.73L177.091,294.78L187.636,297.595L198.182,296.185L208.727,289.532L219.273,279.17L229.818,274.917L240.364,285.698L250.909,302.654L261.455,317.111L272,327.774L282.545,335.529L293.091,341.287L303.636,345.681L314.182,349.122L324.727,351.88L335.273,354.135L345.818,356.009L356.364,357.591L366.909,358.943L377.455,360.11L388,361.128L398.545,362.024L409.091,362.818L419.636,363.526L430.182,364.162L440.727,364.735L451.273,365.256L461.818,365.73L472.364,366.163L482.909,366.561L493.455,366.928L504,367.267L514.545,367.581L525.091,367.874L535.636,368.146L546.182,368.4L556.727,368.638L567.273,368.862L577.818,369.071L588.364,369.269L598.909,369.456L609.455,369.632L620,369.799"/><path stroke="rgb(203, 232, 57)" d="M40,20.961L50.545,61.011L61.091,96.607L71.636,128.259L82.182,156.411L92.727,181.446L103.273,203.691L113.818,223.415L124.364,240.833L134.909,256.099L145.455,269.309L156,280.481L166.545,289.545L177.091,296.316L187.636,300.498L198.182,301.779L208.727,300.301L219.273,297.865L229.818,298.584L240.364,305.042L250.909,314.725L261.455,324.18L272,332.034L282.545,338.234L293.091,343.097L303.636,346.948L314.182,350.045L324.727,352.574L335.273,354.671L345.818,356.434L356.364,357.934L366.909,359.224L377.455,360.344L388,361.326L398.545,362.193L409.091,362.963L419.636,363.652L430.182,364.272L440.727,364.833L451.273,365.342L461.818,365.807L472.364,366.233L482.909,366.624L493.455,366.985L504,367.319L514.545,367.629L525.091,367.917L535.636,368.186L546.182,368.437L556.727,368.672L567.273,368.893L577.818,369.101L588.364,369.297L598.909,369.481L609.455,369.656L620,369.821"/><path stroke="rgb(255, 155, 33)" d="M40,20.8L50.545,60.796L61.091,96.353L71.636,127.98L82.182,156.123L92.727,181.166L103.273,203.437L113.818,223.212L124.364,240.713L134.909,256.113L145.455,269.533L156,281.041L166.545,290.652L177.091,298.336L187.636,304.063L198.182,307.916L208.727,310.326L219.273,312.331L229.818,315.327L240.364,320.023L250.909,325.862L261.455,331.809L272,337.188L282.545,341.777L293.091,345.602L303.636,348.774L314.182,351.413L324.727,353.626L335.273,355.498L345.818,357.096L356.364,358.474L366.909,359.67L377.455,360.719L388,361.644L398.545,362.465L409.091,363.199L419.636,363.858L430.182,364.453L440.727,364.993L451.273,365.485L461.818,365.934L472.364,366.347L482.909,366.728L493.455,367.079L504,367.405L514.545,367.707L525.091,367.989L535.636,368.252L546.182,368.498L556.727,368.729L567.273,368.946L577.818,369.15L588.364,369.342L598.909,369.524L609.455,369.696L620,369.859"/><path stroke="rgb(214, 57, 15)" d="M40,20.513L50.545,60.41L61.091,95.895L71.636,127.476L82.182,155.598L92.727,180.645L103.273,202.95L113.818,222.794L124.364,240.411L134.909,255.993L145.455,269.689L156,281.615L166.545,291.86L177.091,300.501L187.636,307.641L198.182,313.457L208.727,318.251L219.273,322.453L229.818,326.491L240.364,330.6L250.909,334.748L261.455,338.751L272,342.44L282.545,345.725L293.091,348.591L303.636,351.068L314.182,353.202L324.727,355.044L335.273,356.64L345.818,358.03L356.364,359.247L366.909,360.319L377.455,361.268L388,362.114L398.545,362.871L409.091,363.552L419.636,364.168L430.182,364.727L440.727,365.236L451.273,365.702L461.818,366.13L472.364,366.524L482.909,366.887L493.455,367.224L504,367.537L514.545,367.829L525.091,368.101L535.636,368.355L546.182,368.593L556.727,368.817L567.273,369.028L577.818,369.227L588.364,369.414L598.909,369.591L609.455,369.759L620,369.918"/><path stroke="rgb(144, 12, 0)" d="M40,20L50.545,59.718L61.091,95.069L71.636,126.557L82.182,154.625L92.727,179.659L103.273,201.991L113.818,221.908L124.364,239.655L134.909,255.437L145.455,269.426L156,281.768L166.545,292.59L177.091,302.01L187.636,310.149L198.182,317.146L208.727,323.16L219.273,328.364L229.818,332.922L240.364,336.962L250.909,340.566L261.455,343.784L272,346.644L282.545,349.174L293.091,351.403L303.636,353.362L314.182,355.083L324.727,356.598L335.273,357.935L345.818,359.118L356.364,360.169L366.909,361.107L377.455,361.948L388,362.704L398.545,363.387L409.091,364.006L419.636,364.57L430.182,365.085L440.727,365.556L451.273,365.99L461.818,366.39L472.364,366.759L482.909,367.102L493.455,367.42L504,367.717L514.545,367.994L525.091,368.253L535.636,368.496L546.182,368.724L556.727,368.939L567.273,369.141L577.818,369.332L588.364,369.513L598.909,369.684L609.455,369.846L620,370"/></g></svg>