<svg class="plot-d6a7b5" fill="currentColor" font-family="system-ui, sans-serif" font-size="10"
    text-anchor="middle" width="640" height="400" viewBox="0 0 640 400"
    xmlns="http://www.w3.org/2000/svg" xmlns:xlink="http://www.w3.org/1999/xlink">
    <style>:where(.plot-d6a7b5) {
        --plot-background: white;
        display: block;
        height: auto;
        height: intrinsic;
        max-width: 100%;
        }
        :where(.plot-d6a7b5 text),
        :where(.plot-d6a7b5 tspan) {
        white-space: pre;
        }</style>
    <g aria-label="y-grid" aria-hidden="true" stroke="currentColor" stroke-opacity="0.1"
        transform="translate(0,0.5)">
        <line x1="40" x2="474" y1="270" y2="270"></line>
        <line x1="40" x2="474" y1="257.0790871076979" y2="257.0790871076979"></line>
        <line x1="40" x2="474" y1="246.521932577131" y2="246.521932577131"></line>
        <line x1="40" x2="474" y1="237.59598560440156" y2="237.59598560440156"></line>
        <line x1="40" x2="474" y1="229.86397864149467" y2="229.86397864149467"></line>
        <line x1="40" x2="474" y1="223.04386515426194" y2="223.04386515426194"></line>
        <line x1="40" x2="474" y1="216.94306574919253" y2="216.94306574919253"></line>
        <line x1="40" x2="474" y1="176.80704439068717" y2="176.80704439068717"></line>
        <line x1="40" x2="474" y1="153.32897696781822" y2="153.32897696781822"></line>
        <line x1="40" x2="474" y1="136.67102303218184" y2="136.67102303218184"></line>
        <line x1="40" x2="474" y1="123.75011013987972" y2="123.75011013987972"></line>
        <line x1="40" x2="474" y1="113.1929556093128" y2="113.1929556093128"></line>
        <line x1="40" x2="474" y1="104.26700863658344" y2="104.26700863658344"></line>
        <line x1="40" x2="474" y1="96.5350016736765" y2="96.5350016736765"></line>
        <line x1="40" x2="474" y1="89.71488818644379" y2="89.71488818644379"></line>
        <line x1="40" x2="474" y1="83.61408878137436" y2="83.61408878137436"></line>
        <line x1="40" x2="474" y1="43.47806742286901" y2="43.47806742286901"></line>
        <line x1="40" x2="474" y1="20" y2="20"></line>
    </g>
    <g aria-label="y-axis tick" aria-hidden="true" fill="none" stroke="currentColor"
        transform="translate(0,0.5)">
        <path transform="translate(40,270)" d="M0,0L-6,0"></path>
        <path transform="translate(40,257.0790871076979)" d="M0,0L-6,0"></path>
        <path transform="translate(40,246.521932577131)" d="M0,0L-6,0"></path>
        <path transform="translate(40,237.59598560440156)" d="M0,0L-6,0"></path>
        <path transform="translate(40,229.86397864149467)" d="M0,0L-6,0"></path>
        <path transform="translate(40,223.04386515426194)" d="M0,0L-6,0"></path>
        <path transform="translate(40,216.94306574919253)" d="M0,0L-6,0"></path>
        <path transform="translate(40,176.80704439068717)" d="M0,0L-6,0"></path>
        <path transform="translate(40,153.32897696781822)" d="M0,0L-6,0"></path>
        <path transform="translate(40,136.67102303218184)" d="M0,0L-6,0"></path>
        <path transform="translate(40,123.75011013987972)" d="M0,0L-6,0"></path>
        <path transform="translate(40,113.1929556093128)" d="M0,0L-6,0"></path>
        <path transform="translate(40,104.26700863658344)" d="M0,0L-6,0"></path>
        <path transform="translate(40,96.5350016736765)" d="M0,0L-6,0"></path>
        <path transform="translate(40,89.71488818644379)" d="M0,0L-6,0"></path>
        <path transform="translate(40,83.61408878137436)" d="M0,0L-6,0"></path>
        <path transform="translate(40,43.47806742286901)" d="M0,0L-6,0"></path>
        <path transform="translate(40,20)" d="M0,0L-6,0"></path>
    </g>
    <g aria-label="y-axis tick label" text-anchor="end" font-variant="tabular-nums"
        transform="translate(-8.5,0.5)">
        <text y="0.32em" transform="translate(40,270)"></text>
        <text y="0.32em" transform="translate(40,257.0790871076979)"></text>
        <text y="0.32em" transform="translate(40,246.521932577131)"></text>
        <text y="0.32em" transform="translate(40,237.59598560440156)"></text>
        <text y="0.32em" transform="translate(40,229.86397864149467)"></text>
        <text y="0.32em" transform="translate(40,223.04386515426194)"></text>
        <text y="0.32em" transform="translate(40,216.94306574919253)">100m</text>
        <text y="0.32em" transform="translate(40,176.80704439068717)">200m</text>
        <text y="0.32em" transform="translate(40,153.32897696781822)">300m</text>
        <text y="0.32em" transform="translate(40,136.67102303218184)"></text>
        <text y="0.32em" transform="translate(40,123.75011013987972)"></text>
        <text y="0.32em" transform="translate(40,113.1929556093128)"></text>
        <text y="0.32em" transform="translate(40,104.26700863658344)"></text>
        <text y="0.32em" transform="translate(40,96.5350016736765)"></text>
        <text y="0.32em" transform="translate(40,89.71488818644379)"></text>
        <text y="0.32em" transform="translate(40,83.61408878137436)">1</text>
        <text y="0.32em" transform="translate(40,43.47806742286901)">2</text>
        <text y="0.32em" transform="translate(40,20)">3</text>
    </g>
    <g aria-label="y-axis label" text-anchor="start" transform="translate(-36.5,-16.5)">
        <text y="0.71em" transform="translate(40,20)">↑ Generalization error</text>
    </g>
    <g aria-label="x-grid" aria-hidden="true" stroke="currentColor" stroke-opacity="0.1"
        transform="translate(0.5,0)">
        <line x1="40" x2="40" y1="20" y2="270"></line>
        <line x1="83.54900603938925" x2="83.54900603938925" y1="20" y2="270"></line>
        <line x1="109.02354151611115" x2="109.02354151611115" y1="20" y2="270"></line>
        <line x1="127.09801207877854" x2="127.09801207877854" y1="20" y2="270"></line>
        <line x1="141.11766062727736" x2="141.11766062727736" y1="20" y2="270"></line>
        <line x1="152.5725475555004" x2="152.5725475555004" y1="20" y2="270"></line>
        <line x1="162.25751645539583" x2="162.25751645539583" y1="20" y2="270"></line>
        <line x1="170.64701811816778" x2="170.64701811816778" y1="20" y2="270"></line>
        <line x1="178.0470830322223" x2="178.0470830322223" y1="20" y2="270"></line>
        <line x1="184.66666666666669" x2="184.66666666666669" y1="20" y2="270"></line>
        <line x1="228.21567270605587" x2="228.21567270605587" y1="20" y2="270"></line>
        <line x1="253.6902081827778" x2="253.6902081827778" y1="20" y2="270"></line>
        <line x1="271.76467874544517" x2="271.76467874544517" y1="20" y2="270"></line>
        <line x1="285.784327293944" x2="285.784327293944" y1="20" y2="270"></line>
        <line x1="297.23921422216705" x2="297.23921422216705" y1="20" y2="270"></line>
        <line x1="306.92418312206246" x2="306.92418312206246" y1="20" y2="270"></line>
        <line x1="315.31368478483444" x2="315.31368478483444" y1="20" y2="270"></line>
        <line x1="322.71374969888893" x2="322.71374969888893" y1="20" y2="270"></line>
        <line x1="329.33333333333326" x2="329.33333333333326" y1="20" y2="270"></line>
        <line x1="372.8823393727225" x2="372.8823393727225" y1="20" y2="270"></line>
        <line x1="398.35687484944435" x2="398.35687484944435" y1="20" y2="270"></line>
        <line x1="416.43134541211185" x2="416.43134541211185" y1="20" y2="270"></line>
        <line x1="430.45099396061073" x2="430.45099396061073" y1="20" y2="270"></line>
        <line x1="441.90588088883374" x2="441.90588088883374" y1="20" y2="270"></line>
        <line x1="451.5908497887291" x2="451.5908497887291" y1="20" y2="270"></line>
        <line x1="459.9803514515011" x2="459.9803514515011" y1="20" y2="270"></line>
        <line x1="467.3804163655556" x2="467.3804163655556" y1="20" y2="270"></line>
        <line x1="474" x2="474" y1="20" y2="270"></line>
    </g>
    <g aria-label="x-axis tick" aria-hidden="true" fill="none" stroke="currentColor"
        transform="translate(0.5,0)">
        <path transform="translate(40,270)" d="M0,0L0,6"></path>
        <path transform="translate(83.54900603938925,270)" d="M0,0L0,6"></path>
        <path transform="translate(109.02354151611115,270)" d="M0,0L0,6"></path>
        <path transform="translate(127.09801207877854,270)" d="M0,0L0,6"></path>
        <path transform="translate(141.11766062727736,270)" d="M0,0L0,6"></path>
        <path transform="translate(152.5725475555004,270)" d="M0,0L0,6"></path>
        <path transform="translate(162.25751645539583,270)" d="M0,0L0,6"></path>
        <path transform="translate(170.64701811816778,270)" d="M0,0L0,6"></path>
        <path transform="translate(178.0470830322223,270)" d="M0,0L0,6"></path>
        <path transform="translate(184.66666666666669,270)" d="M0,0L0,6"></path>
        <path transform="translate(228.21567270605587,270)" d="M0,0L0,6"></path>
        <path transform="translate(253.6902081827778,270)" d="M0,0L0,6"></path>
        <path transform="translate(271.76467874544517,270)" d="M0,0L0,6"></path>
        <path transform="translate(285.784327293944,270)" d="M0,0L0,6"></path>
        <path transform="translate(297.23921422216705,270)" d="M0,0L0,6"></path>
        <path transform="translate(306.92418312206246,270)" d="M0,0L0,6"></path>
        <path transform="translate(315.31368478483444,270)" d="M0,0L0,6"></path>
        <path transform="translate(322.71374969888893,270)" d="M0,0L0,6"></path>
        <path transform="translate(329.33333333333326,270)" d="M0,0L0,6"></path>
        <path transform="translate(372.8823393727225,270)" d="M0,0L0,6"></path>
        <path transform="translate(398.35687484944435,270)" d="M0,0L0,6"></path>
        <path transform="translate(416.43134541211185,270)" d="M0,0L0,6"></path>
        <path transform="translate(430.45099396061073,270)" d="M0,0L0,6"></path>
        <path transform="translate(441.90588088883374,270)" d="M0,0L0,6"></path>
        <path transform="translate(451.5908497887291,270)" d="M0,0L0,6"></path>
        <path transform="translate(459.9803514515011,270)" d="M0,0L0,6"></path>
        <path transform="translate(467.3804163655556,270)" d="M0,0L0,6"></path>
        <path transform="translate(474,270)" d="M0,0L0,6"></path>
    </g>
    <g aria-label="x-axis tick label" font-variant="tabular-nums" transform="translate(0.5,9.5)">
        <text y="0.71em" transform="translate(40,270)">10</text>
        <text y="0.71em" transform="translate(83.54900603938925,270)"></text>
        <text y="0.71em" transform="translate(109.02354151611115,270)"></text>
        <text y="0.71em" transform="translate(127.09801207877854,270)"></text>
        <text y="0.71em" transform="translate(141.11766062727736,270)"></text>
        <text y="0.71em" transform="translate(152.5725475555004,270)"></text>
        <text y="0.71em" transform="translate(162.25751645539583,270)"></text>
        <text y="0.71em" transform="translate(170.64701811816778,270)"></text>
        <text y="0.71em" transform="translate(178.0470830322223,270)"></text>
        <text y="0.71em" transform="translate(184.66666666666669,270)">100</text>
        <text y="0.71em" transform="translate(228.21567270605587,270)"></text>
        <text y="0.71em" transform="translate(253.6902081827778,270)"></text>
        <text y="0.71em" transform="translate(271.76467874544517,270)"></text>
        <text y="0.71em" transform="translate(285.784327293944,270)"></text>
        <text y="0.71em" transform="translate(297.23921422216705,270)"></text>
        <text y="0.71em" transform="translate(306.92418312206246,270)"></text>
        <text y="0.71em" transform="translate(315.31368478483444,270)"></text>
        <text y="0.71em" transform="translate(322.71374969888893,270)"></text>
        <text y="0.71em" transform="translate(329.33333333333326,270)">1k</text>
        <text y="0.71em" transform="translate(372.8823393727225,270)"></text>
        <text y="0.71em" transform="translate(398.35687484944435,270)"></text>
        <text y="0.71em" transform="translate(416.43134541211185,270)"></text>
        <text y="0.71em" transform="translate(430.45099396061073,270)"></text>
        <text y="0.71em" transform="translate(441.90588088883374,270)"></text>
        <text y="0.71em" transform="translate(451.5908497887291,270)"></text>
        <text y="0.71em" transform="translate(459.9803514515011,270)"></text>
        <text y="0.71em" transform="translate(467.3804163655556,270)"></text>
        <text y="0.71em" transform="translate(474,270)">10k</text>
    </g>
    <g aria-label="x-axis label" text-anchor="end" transform="translate(17.5,27.5)">
        <text transform="translate(474,270)"># Samples →</text>
    </g>
    <g aria-label="line" fill="none" stroke-width="1.5" stroke-linejoin="round"
        stroke-linecap="round" transform="translate(0.5,0.5)">
        <path stroke="#440154"
            d="M40,96.297L45.988,97.15L51.455,97.956L56.484,98.719L61.14,99.443L65.475,100.131L69.529,100.786L73.338,101.411L76.929,102.008L80.326,102.58L83.549,103.127L86.614,103.653L89.537,104.158L92.33,104.645L95.004,105.113L97.569,105.566L100.033,106.002L102.404,106.425L104.689,106.834L106.894,107.23L109.024,107.614L111.084,107.987L113.078,108.349L115.012,108.702L116.887,109.044L120.478,109.704L122.2,110.021L123.875,110.331L127.098,110.929L128.649,111.218L130.163,111.5L133.086,112.048L134.498,112.313L135.879,112.573L137.23,112.828L139.848,113.325L142.362,113.803L143.582,114.036L145.953,114.49L148.238,114.929L150.443,115.355L152.573,115.768L154.633,116.169L157.601,116.75L159.505,117.124L161.354,117.488L164.027,118.018L165.749,118.36L168.246,118.859L170.647,119.34L172.96,119.806L175.191,120.257L177.345,120.695L179.428,121.119L181.444,121.531L183.397,121.931L185.911,122.447L187.732,122.823L190.081,123.307L192.345,123.776L194.531,124.228L196.643,124.666L199.187,125.193L201.15,125.6L203.522,126.091L205.356,126.47L207.576,126.928L209.721,127.369L212.201,127.876L214.196,128.283L216.509,128.752L218.74,129.201L220.894,129.631L222.977,130.043L225.323,130.503L227.266,130.88L229.151,131.241L229.46,131.3L231.877,131.756L233.918,132.135L236.172,132.547L238.348,132.937L240.451,133.306L242.736,133.697L244.941,134.066L247.071,134.412L249.356,134.772L251.343,135.075L253.69,135.42L255.75,135.71L257.941,136.006L260.247,136.302L262.289,136.549L264.619,136.815L266.696,137.035L268.872,137.249L271.133,137.451L273.316,137.627L275.426,137.776L276.454,137.842L277.61,137.909L279.859,138.022L282.03,138.106L284.258,138.167L286.409,138.198L288.61,138.201L290.736,138.174L292.905,138.115L295.109,138.021L297.344,137.888L299.502,137.722L301.685,137.512L303.796,137.268L306.02,136.964L308.168,136.621L310.416,136.207L312.585,135.75L314.762,135.23L316.942,134.643L319.123,133.984L321.302,133.247L323.477,132.428L323.821,132.291L325.646,131.521L327.871,130.486L330.021,129.378L332.219,128.123L334.401,126.744L336.566,125.23L338.766,123.525L340.945,121.655L343.101,119.605L345.283,117.305L347.486,114.725L349.66,111.893L351.849,108.721L354.049,105.173L356.216,101.293L358.39,96.992L360.567,92.277L362.745,87.216L364.922,81.999L367.129,76.957L369.295,72.964L371.163,70.999L371.485,70.845L373.663,71.424L375.858,74.743L378.037,79.995L380.199,86.17L382.397,92.68L384.572,98.93L386.751,104.8L388.93,110.218L391.106,115.179L393.3,119.753L395.486,123.92L397.662,127.72L399.847,131.226L402.018,134.434L404.193,137.401L406.387,140.173L408.56,142.72L410.747,145.104L412.927,147.32L415.114,149.396L417.289,151.329L418.471,152.328L419.467,153.143L421.658,154.858L423.831,156.458L426.013,157.971L428.2,159.401L430.376,160.745L432.552,162.017L434.737,163.226L436.917,164.368L439.101,165.454L441.285,166.484L443.457,167.458L445.646,168.391L447.827,169.276L450.009,170.119L452.189,170.921L454.365,171.685L456.551,172.417L458.727,173.112L460.908,173.778L463.091,174.414L465.272,175.022L465.783,175.161L467.457,175.605L469.636,176.161L471.814,176.693L474,177.204"></path>
        <path stroke="#31688e"
            d="M40,96.283L45.988,97.137L51.455,97.944L56.484,98.708L61.14,99.433L65.475,100.122L69.529,100.779L73.338,101.405L76.929,102.004L80.326,102.577L83.549,103.126L86.614,103.653L89.537,104.16L92.33,104.648L95.004,105.118L97.569,105.572L100.033,106.011L102.404,106.435L104.689,106.845L106.894,107.243L109.024,107.628L111.084,108.003L113.078,108.366L115.012,108.72L116.887,109.065L120.478,109.727L122.2,110.045L123.875,110.356L127.098,110.957L128.649,111.247L130.163,111.531L133.086,112.081L134.498,112.348L135.879,112.609L137.23,112.866L139.848,113.364L142.362,113.845L143.582,114.079L145.953,114.535L148.238,114.977L150.443,115.405L152.573,115.82L154.633,116.223L157.601,116.807L159.505,117.183L161.354,117.55L164.027,118.082L165.749,118.427L168.246,118.928L170.647,119.413L172.96,119.882L175.191,120.336L177.345,120.777L179.428,121.204L181.444,121.619L183.397,122.022L185.911,122.543L187.732,122.921L190.081,123.41L192.345,123.883L194.531,124.34L196.643,124.782L199.187,125.315L201.15,125.727L203.522,126.224L205.356,126.608L207.576,127.072L209.721,127.52L212.201,128.036L214.196,128.45L216.509,128.927L218.74,129.385L220.894,129.824L222.977,130.246L225.323,130.717L227.266,131.104L229.151,131.476L229.46,131.536L231.877,132.007L233.918,132.399L236.172,132.826L238.348,133.231L240.451,133.616L242.736,134.027L244.941,134.415L247.071,134.781L249.356,135.164L251.343,135.488L253.69,135.86L255.75,136.176L257.941,136.5L260.247,136.829L262.289,137.107L264.619,137.41L266.696,137.667L268.872,137.921L271.133,138.169L273.316,138.391L275.426,138.59L276.454,138.681L277.61,138.778L279.859,138.951L282.03,139.099L284.258,139.23L286.409,139.334L288.61,139.419L290.736,139.478L292.905,139.514L295.109,139.525L297.344,139.508L299.502,139.464L301.685,139.39L303.796,139.29L306.02,139.152L308.168,138.987L310.416,138.778L312.585,138.54L314.762,138.264L316.942,137.949L319.123,137.593L321.302,137.196L323.477,136.756L323.821,136.683L325.646,136.274L327.871,135.734L330.021,135.166L332.219,134.539L334.401,133.87L336.566,133.162L338.766,132.399L340.945,131.603L343.101,130.781L345.283,129.919L347.486,129.029L349.66,128.141L351.849,127.252L354.049,126.381L356.216,125.569L358.39,124.823L360.567,124.173L362.745,123.65L364.922,123.286L367.129,123.108L369.295,123.147L371.163,123.364L371.485,123.419L373.663,123.931L375.858,124.691L378.037,125.678L380.199,126.865L382.397,128.259L384.572,129.794L386.751,131.453L388.93,133.202L391.106,135.011L393.3,136.87L395.486,138.735L397.662,140.584L399.847,142.421L402.018,144.212L404.193,145.966L406.387,147.687L408.56,149.34L410.747,150.947L412.927,152.492L415.114,153.985L417.289,155.413L418.471,156.165L419.467,156.785L421.658,158.111L423.831,159.372L426.013,160.585L428.2,161.75L430.376,162.861L432.552,163.925L434.737,164.949L436.917,165.927L439.101,166.866L441.285,167.765L443.457,168.622L445.646,169.449L447.827,170.239L450.009,170.997L452.189,171.722L454.365,172.416L456.551,173.085L458.727,173.724L460.908,174.338L463.091,174.927L465.272,175.493L465.783,175.622L467.457,176.037L469.636,176.557L471.814,177.057L474,177.539"></path>
        <path stroke="#35b779"
            d="M40,96.116L45.988,96.975L51.455,97.788L56.484,98.559L61.14,99.292L65.475,99.991L69.529,100.657L73.338,101.294L76.929,101.903L80.326,102.488L83.549,103.049L86.614,103.588L89.537,104.107L92.33,104.607L95.004,105.089L97.569,105.555L100.033,106.005L102.404,106.441L104.689,106.863L106.894,107.273L109.024,107.67L111.084,108.056L113.078,108.431L115.012,108.796L116.887,109.152L120.478,109.836L122.2,110.165L123.875,110.487L127.098,111.108L128.649,111.408L130.163,111.702L133.086,112.271L134.498,112.547L135.879,112.818L137.23,113.083L139.848,113.6L142.362,114.098L143.582,114.34L145.953,114.813L148.238,115.271L150.443,115.714L152.573,116.145L154.633,116.563L157.601,117.169L159.505,117.559L161.354,117.939L164.027,118.493L165.749,118.851L168.246,119.372L170.647,119.876L172.96,120.365L175.191,120.838L177.345,121.298L179.428,121.744L181.444,122.178L183.397,122.601L185.911,123.147L187.732,123.545L190.081,124.06L192.345,124.559L194.531,125.042L196.643,125.511L199.187,126.079L201.15,126.519L203.522,127.051L205.356,127.465L207.576,127.966L209.721,128.452L212.201,129.015L214.196,129.469L216.509,129.996L218.74,130.504L220.894,130.996L222.977,131.471L225.323,132.006L227.266,132.449L229.151,132.878L229.46,132.948L231.877,133.498L233.918,133.961L236.172,134.47L238.348,134.961L240.451,135.433L242.736,135.944L244.941,136.435L247.071,136.906L249.356,137.409L251.343,137.844L253.69,138.353L255.75,138.798L257.941,139.266L260.247,139.755L262.289,140.184L264.619,140.669L266.696,141.097L268.872,141.54L271.133,141.996L273.316,142.431L275.426,142.847L276.454,143.048L277.61,143.272L279.859,143.704L282.03,144.116L284.258,144.532L286.409,144.93L288.61,145.33L290.736,145.712L292.905,146.096L295.109,146.48L297.344,146.865L299.502,147.23L301.685,147.595L303.796,147.943L306.02,148.305L308.168,148.649L310.416,149.005L312.585,149.343L314.762,149.679L316.942,150.012L319.123,150.341L321.302,150.667L323.477,150.99L323.821,151.041L325.646,151.31L327.871,151.635L330.021,151.948L332.219,152.268L334.401,152.584L336.566,152.898L338.766,153.218L340.945,153.536L343.101,153.852L345.283,154.175L347.486,154.504L349.66,154.831L351.849,155.166L354.049,155.507L356.216,155.848L358.39,156.196L360.567,156.551L362.745,156.912L364.922,157.281L367.129,157.663L369.295,158.046L371.163,158.383L371.485,158.441L373.663,158.843L375.858,159.257L378.037,159.676L380.199,160.1L382.397,160.54L384.572,160.984L386.751,161.436L388.93,161.897L391.106,162.363L393.3,162.841L395.486,163.323L397.662,163.809L399.847,164.301L402.018,164.795L404.193,165.293L406.387,165.799L408.56,166.302L410.747,166.809L412.927,167.315L415.114,167.823L417.289,168.328L418.471,168.601L419.467,168.831L421.658,169.336L423.831,169.833L426.013,170.328L428.2,170.821L430.376,171.306L432.552,171.787L434.737,172.263L436.917,172.732L439.101,173.196L441.285,173.652L443.457,174.099L445.646,174.542L447.827,174.976L450.009,175.401L452.189,175.818L454.365,176.226L456.551,176.627L458.727,177.018L460.908,177.402L463.091,177.777L465.272,178.143L465.783,178.227L467.457,178.501L469.636,178.849L471.814,179.189L474,179.521"></path>
        <path stroke="#fde725"
            d="M40,93.861L45.988,94.639L51.455,95.385L56.484,96.101L61.14,96.789L65.475,97.451L69.529,98.088L73.338,98.703L76.929,99.295L80.326,99.868L83.549,100.421L86.614,100.957L89.537,101.475L92.33,101.977L95.004,102.464L97.569,102.937L100.033,103.396L102.404,103.842L104.689,104.275L106.894,104.697L109.024,105.108L111.084,105.508L113.078,105.898L115.012,106.278L116.887,106.648L120.478,107.364L122.2,107.709L123.875,108.046L127.098,108.699L128.649,109.015L130.163,109.324L133.086,109.924L134.498,110.215L135.879,110.5L137.23,110.78L139.848,111.324L142.362,111.848L143.582,112.103L145.953,112.6L148.238,113.081L150.443,113.546L152.573,113.996L154.633,114.433L157.601,115.064L159.505,115.47L161.354,115.865L164.027,116.437L165.749,116.806L168.246,117.343L170.647,117.86L172.96,118.36L175.191,118.843L177.345,119.31L179.428,119.763L181.444,120.202L183.397,120.628L185.911,121.178L187.732,121.577L190.081,122.093L192.345,122.592L194.531,123.074L196.643,123.542L199.187,124.107L201.15,124.544L203.522,125.073L205.356,125.484L207.576,125.982L209.721,126.465L212.201,127.025L214.196,127.477L216.509,128.003L218.74,128.511L220.894,129.004L222.977,129.482L225.323,130.022L227.266,130.47L229.151,130.907L229.46,130.978L231.877,131.54L233.918,132.015L236.172,132.542L238.348,133.053L240.451,133.547L242.736,134.086L244.941,134.608L247.071,135.113L249.356,135.657L251.343,136.131L253.69,136.692L255.75,137.185L257.941,137.711L260.247,138.266L262.289,138.758L264.619,139.321L266.696,139.823L268.872,140.35L271.133,140.898L273.316,141.428L275.426,141.941L276.454,142.19L277.61,142.471L279.859,143.018L282.03,143.546L284.258,144.087L286.409,144.61L288.61,145.145L290.736,145.661L292.905,146.187L295.109,146.721L297.344,147.261L299.502,147.782L301.685,148.308L303.796,148.816L306.02,149.35L308.168,149.864L310.416,150.4L312.585,150.916L314.762,151.433L316.942,151.948L319.123,152.462L321.302,152.973L323.477,153.481L323.821,153.561L325.646,153.986L327.871,154.502L330.021,154.997L332.219,155.502L334.401,156L336.566,156.491L338.766,156.989L340.945,157.478L343.101,157.96L345.283,158.444L347.486,158.93L349.66,159.407L351.849,159.884L354.049,160.36L356.216,160.826L358.39,161.29L360.567,161.752L362.745,162.21L364.922,162.665L367.129,163.122L369.295,163.568L371.163,163.949L371.485,164.015L373.663,164.456L375.858,164.897L378.037,165.33L380.199,165.757L382.397,166.188L384.572,166.61L386.751,167.029L388.93,167.444L391.106,167.855L393.3,168.265L395.486,168.67L397.662,169.069L399.847,169.466L402.018,169.856L404.193,170.243L406.387,170.629L408.56,171.008L410.747,171.384L412.927,171.756L415.114,172.124L417.289,172.487L418.471,172.682L419.467,172.845L421.658,173.202L423.831,173.552L426.013,173.898L428.2,174.241L430.376,174.578L432.552,174.911L434.737,175.241L436.917,175.566L439.101,175.887L441.285,176.203L443.457,176.514L445.646,176.822L447.827,177.126L450.009,177.424L452.189,177.718L454.365,178.007L456.551,178.293L458.727,178.574L460.908,178.85L463.091,179.122L465.272,179.39L465.783,179.452L467.457,179.653L469.636,179.912L471.814,180.166L474,180.416"></path>
    </g>
    <g aria-label="dot" fill="none" stroke-width="1.5" transform="translate(0.5,0.5)">
        <path transform="translate(40,96.2222701537602)" d="M-6.873,0L6.873,0M0,6.873L0,-6.873"
            stroke="#440154"></path>
        <path transform="translate(40,99.02960465349008)" d="M-6.873,0L6.873,0M0,6.873L0,-6.873"
            stroke="#31688e"></path>
        <path transform="translate(40,97.57583464550422)" d="M-6.873,0L6.873,0M0,6.873L0,-6.873"
            stroke="#35b779"></path>
        <path transform="translate(40,94.2122239503021)" d="M-6.873,0L6.873,0M0,6.873L0,-6.873"
            stroke="#fde725"></path>
        <path transform="translate(86.61439130484031,102.77023618535445)"
            d="M-6.873,0L6.873,0M0,6.873L0,-6.873" stroke="#440154"></path>
        <path transform="translate(86.61439130484031,103.57024942019703)"
            d="M-6.873,0L6.873,0M0,6.873L0,-6.873" stroke="#31688e"></path>
        <path transform="translate(86.61439130484031,104.61475460575134)"
            d="M-6.873,0L6.873,0M0,6.873L0,-6.873" stroke="#35b779"></path>
        <path transform="translate(86.61439130484031,101.88836917852694)"
            d="M-6.873,0L6.873,0M0,6.873L0,-6.873" stroke="#fde725"></path>
        <path transform="translate(134.498076992833,113.32523345332794)"
            d="M-6.873,0L6.873,0M0,6.873L0,-6.873" stroke="#440154"></path>
        <path transform="translate(134.498076992833,111.2745725501702)"
            d="M-6.873,0L6.873,0M0,6.873L0,-6.873" stroke="#31688e"></path>
        <path transform="translate(134.498076992833,113.0273071034799)"
            d="M-6.873,0L6.873,0M0,6.873L0,-6.873" stroke="#35b779"></path>
        <path transform="translate(134.498076992833,110.00893069907819)"
            d="M-6.873,0L6.873,0M0,6.873L0,-6.873" stroke="#fde725"></path>
        <path transform="translate(181.44401489845328,121.42209559765311)"
            d="M-6.873,0L6.873,0M0,6.873L0,-6.873" stroke="#440154"></path>
        <path transform="translate(181.44401489845328,122.07505981610495)"
            d="M-6.873,0L6.873,0M0,6.873L0,-6.873" stroke="#31688e"></path>
        <path transform="translate(181.44401489845328,122.82663606350766)"
            d="M-6.873,0L6.873,0M0,6.873L0,-6.873" stroke="#35b779"></path>
        <path transform="translate(181.44401489845328,119.94714185837555)"
            d="M-6.873,0L6.873,0M0,6.873L0,-6.873" stroke="#fde725"></path>
        <path transform="translate(229.15109348477807,132.09859138366852)"
            d="M-6.873,0L6.873,0M0,6.873L0,-6.873" stroke="#440154"></path>
        <path transform="translate(229.15109348477807,131.08762375331978)"
            d="M-6.873,0L6.873,0M0,6.873L0,-6.873" stroke="#31688e"></path>
        <path transform="translate(229.15109348477807,133.13507252888573)"
            d="M-6.873,0L6.873,0M0,6.873L0,-6.873" stroke="#35b779"></path>
        <path transform="translate(229.15109348477807,130.7165358795205)"
            d="M-6.873,0L6.873,0M0,6.873L0,-6.873" stroke="#fde725"></path>
        <path transform="translate(276.45437841658577,137.39621646342394)"
            d="M-6.873,0L6.873,0M0,6.873L0,-6.873" stroke="#440154"></path>
        <path transform="translate(276.45437841658577,138.3033700396729)"
            d="M-6.873,0L6.873,0M0,6.873L0,-6.873" stroke="#31688e"></path>
        <path transform="translate(276.45437841658577,142.47670651431233)"
            d="M-6.873,0L6.873,0M0,6.873L0,-6.873" stroke="#35b779"></path>
        <path transform="translate(276.45437841658577,141.37692984457237)"
            d="M-6.873,0L6.873,0M0,6.873L0,-6.873" stroke="#fde725"></path>
        <path transform="translate(323.820878523949,131.78535445985503)"
            d="M-6.873,0L6.873,0M0,6.873L0,-6.873" stroke="#440154"></path>
        <path transform="translate(323.820878523949,135.41039515765905)"
            d="M-6.873,0L6.873,0M0,6.873L0,-6.873" stroke="#31688e"></path>
        <path transform="translate(323.820878523949,149.4539076633366)"
            d="M-6.873,0L6.873,0M0,6.873L0,-6.873" stroke="#35b779"></path>
        <path transform="translate(323.820878523949,152.44512246534617)"
            d="M-6.873,0L6.873,0M0,6.873L0,-6.873" stroke="#fde725"></path>
        <path transform="translate(371.1626635982108,70.35557078663616)"
            d="M-6.873,0L6.873,0M0,6.873L0,-6.873" stroke="#440154"></path>
        <path transform="translate(371.1626635982108,119.55926437898665)"
            d="M-6.873,0L6.873,0M0,6.873L0,-6.873" stroke="#31688e"></path>
        <path transform="translate(371.1626635982108,154.94191891999074)"
            d="M-6.873,0L6.873,0M0,6.873L0,-6.873" stroke="#35b779"></path>
        <path transform="translate(371.1626635982108,162.17825849872972)"
            d="M-6.873,0L6.873,0M0,6.873L0,-6.873" stroke="#fde725"></path>
        <path transform="translate(418.47119192528356,144.82943860572507)"
            d="M-6.873,0L6.873,0M0,6.873L0,-6.873" stroke="#440154"></path>
        <path transform="translate(418.47119192528356,148.77341116925157)"
            d="M-6.873,0L6.873,0M0,6.873L0,-6.873" stroke="#31688e"></path>
        <path transform="translate(418.47119192528356,163.13013462927015)"
            d="M-6.873,0L6.873,0M0,6.873L0,-6.873" stroke="#35b779"></path>
        <path transform="translate(418.47119192528356,170.39106982147558)"
            d="M-6.873,0L6.873,0M0,6.873L0,-6.873" stroke="#fde725"></path>
        <path transform="translate(465.7825904833046,169.69388865381575)"
            d="M-6.873,0L6.873,0M0,6.873L0,-6.873" stroke="#440154"></path>
        <path transform="translate(465.7825904833046,170.10853988736227)"
            d="M-6.873,0L6.873,0M0,6.873L0,-6.873" stroke="#31688e"></path>
        <path transform="translate(465.7825904833046,173.36520857552958)"
            d="M-6.873,0L6.873,0M0,6.873L0,-6.873" stroke="#35b779"></path>
        <path transform="translate(465.7825904833046,176.4713050797417)"
            d="M-6.873,0L6.873,0M0,6.873L0,-6.873" stroke="#fde725"></path>
    </g>
    <g aria-label="line" fill="none" stroke-width="1.5" stroke-linejoin="round"
        stroke-linecap="round" stroke-dasharray="5,5" transform="translate(0.5,0.5)">
        <path opacity="0.3" stroke="#440154"
            d="M40,95.27L45.988,95.849L51.455,96.358L56.484,96.805L61.14,97.196L65.475,97.538L69.529,97.835L73.338,98.092L76.929,98.312L80.326,98.501L83.549,98.66L86.614,98.794L89.537,98.904L92.33,98.994L95.004,99.064L97.569,99.118L100.033,99.157L102.404,99.182L104.689,99.195L106.894,99.197L109.024,99.189L111.084,99.172L113.078,99.147L115.012,99.115L116.887,99.076L120.478,98.982L122.2,98.928L123.875,98.87L127.098,98.742L128.649,98.673L130.163,98.602L133.086,98.452L134.498,98.375L135.879,98.295L137.23,98.214L139.848,98.049L142.362,97.879L143.582,97.794L145.953,97.62L148.238,97.445L150.443,97.269L152.573,97.092L154.633,96.914L157.601,96.648L159.505,96.472L161.354,96.295L164.027,96.032L165.749,95.858L168.246,95.597L170.647,95.338L172.96,95.081L175.191,94.825L177.345,94.57L179.428,94.316L181.444,94.062L183.397,93.809L185.911,93.472L187.732,93.219L190.081,92.881L192.345,92.54L194.531,92.198L196.643,91.853L199.187,91.417L201.15,91.064L203.522,90.616L205.356,90.252L207.576,89.79L209.721,89.319L212.201,88.741L214.196,88.248L216.509,87.642L218.74,87.02L220.894,86.382L222.977,85.726L225.323,84.939L227.266,84.244L229.151,83.53L229.46,83.409L231.877,82.424L233.918,81.533L236.172,80.482L238.348,79.395L240.451,78.273L242.736,76.966L244.941,75.613L247.071,74.213L249.356,72.603L251.343,71.104L253.69,69.208L255.75,67.423L257.941,65.395L260.247,63.105L262.289,60.937L264.619,58.295L266.696,55.784L268.872,52.993L271.133,49.92L273.316,46.796L275.426,43.645L276.454,42.07L277.61,40.279L279.859,36.761L282.03,33.401L284.258,30.128L286.409,27.318L288.61,25.043L290.736,23.688L292.905,23.414L295.109,24.448L297.344,26.838L299.502,30.241L301.685,34.482L303.796,39.04L306.02,44.056L308.168,48.91L310.416,53.857L312.585,58.431L314.762,62.778L316.942,66.877L319.123,70.722L321.302,74.316L323.477,77.67L323.821,78.18L325.646,80.798L327.871,83.797L330.021,86.508L332.219,89.107L334.401,91.525L336.566,93.779L338.766,95.933L340.945,97.94L343.101,99.813L345.283,101.601L347.486,103.306L349.66,104.896L351.849,106.412L354.049,107.855L356.216,109.202L358.39,110.485L360.567,111.705L362.745,112.866L364.922,113.97L367.129,115.035L369.295,116.03L371.163,116.851L371.485,116.989L373.663,117.899L375.858,118.774L378.037,119.603L380.199,120.388L382.397,121.152L384.572,121.875L386.751,122.567L388.93,123.23L391.106,123.864L393.3,124.476L395.486,125.059L397.662,125.617L399.847,126.153L402.018,126.664L404.193,127.155L406.387,127.631L408.56,128.083L410.747,128.52L412.927,128.938L415.114,129.341L417.289,129.726L418.471,129.929L419.467,130.097L421.658,130.455L423.831,130.797L426.013,131.127L428.2,131.445L430.376,131.749L432.552,132.042L434.737,132.325L436.917,132.597L439.101,132.859L441.285,133.111L443.457,133.353L445.646,133.588L447.827,133.813L450.009,134.029L452.189,134.238L454.365,134.439L456.551,134.633L458.727,134.819L460.908,134.999L463.091,135.173L465.272,135.34L465.783,135.378L467.457,135.502L469.636,135.657L471.814,135.806L474,135.951"></path>
        <path opacity="0.3" stroke="#31688e"
            d="M40,95.284L45.988,95.864L51.455,96.376L56.484,96.826L61.14,97.22L65.475,97.564L69.529,97.864L73.338,98.124L76.929,98.348L80.326,98.539L83.549,98.702L86.614,98.839L89.537,98.952L92.33,99.045L95.004,99.119L97.569,99.176L100.033,99.218L102.404,99.246L104.689,99.263L106.894,99.268L109.024,99.263L111.084,99.25L113.078,99.228L115.012,99.2L116.887,99.165L120.478,99.078L122.2,99.027L123.875,98.972L127.098,98.852L128.649,98.787L130.163,98.719L133.086,98.577L134.498,98.503L135.879,98.427L137.23,98.35L139.848,98.192L142.362,98.031L143.582,97.949L145.953,97.783L148.238,97.616L150.443,97.448L152.573,97.279L154.633,97.11L157.601,96.857L159.505,96.689L161.354,96.522L164.027,96.272L165.749,96.107L168.246,95.86L170.647,95.616L172.96,95.373L175.191,95.132L177.345,94.893L179.428,94.655L181.444,94.419L183.397,94.183L185.911,93.87L187.732,93.635L190.081,93.322L192.345,93.008L194.531,92.694L196.643,92.377L199.187,91.979L201.15,91.658L203.522,91.252L205.356,90.923L207.576,90.507L209.721,90.084L212.201,89.569L214.196,89.131L216.509,88.595L218.74,88.049L220.894,87.491L222.977,86.921L225.323,86.242L227.266,85.646L229.151,85.039L229.46,84.937L231.877,84.107L233.918,83.364L236.172,82.498L238.348,81.613L240.451,80.711L242.736,79.678L244.941,78.627L247.071,77.562L249.356,76.364L251.343,75.278L253.69,73.945L255.75,72.735L257.941,71.414L260.247,69.996L262.289,68.729L264.619,67.287L266.696,66.027L268.872,64.758L271.133,63.527L273.316,62.46L275.426,61.581L276.454,61.217L277.61,60.867L279.859,60.384L282.03,60.196L284.258,60.316L286.409,60.749L288.61,61.515L290.736,62.554L292.905,63.892L295.109,65.505L297.344,67.356L299.502,69.308L301.685,71.402L303.796,73.504L306.02,75.767L308.168,77.969L310.416,80.266L312.585,82.456L314.762,84.613L316.942,86.721L319.123,88.77L321.302,90.753L323.477,92.665L323.821,92.961L325.646,94.502L327.871,96.315L330.021,97.996L332.219,99.648L334.401,101.22L336.566,102.715L338.766,104.172L340.945,105.553L343.101,106.863L345.283,108.133L347.486,109.361L349.66,110.521L351.849,111.641L354.049,112.719L356.216,113.737L358.39,114.715L360.567,115.655L362.745,116.557L364.922,117.422L367.129,118.262L369.295,119.054L371.163,119.711L371.485,119.822L373.663,120.556L375.858,121.266L378.037,121.943L380.199,122.588L382.397,123.218L384.572,123.818L386.751,124.395L388.93,124.95L391.106,125.484L393.3,126.001L395.486,126.497L397.662,126.971L399.847,127.43L402.018,127.869L404.193,128.292L406.387,128.704L408.56,129.096L410.747,129.476L412.927,129.841L415.114,130.194L417.289,130.532L418.471,130.711L419.467,130.858L421.658,131.175L423.831,131.477L426.013,131.77L428.2,132.053L430.376,132.325L432.552,132.586L434.737,132.84L436.917,133.084L439.101,133.32L441.285,133.547L443.457,133.766L445.646,133.978L447.827,134.182L450.009,134.379L452.189,134.569L454.365,134.752L456.551,134.929L458.727,135.1L460.908,135.265L463.091,135.424L465.272,135.578L465.783,135.613L467.457,135.727L469.636,135.87L471.814,136.008L474,136.142"></path>
        <path opacity="0.3" stroke="#35b779"
            d="M40,95.41L45.988,96.014L51.455,96.549L56.484,97.024L61.14,97.444L65.475,97.816L69.529,98.143L73.338,98.43L76.929,98.682L80.326,98.903L83.549,99.095L86.614,99.261L89.537,99.405L92.33,99.527L95.004,99.632L97.569,99.719L100.033,99.792L102.404,99.852L104.689,99.899L106.894,99.936L109.024,99.962L111.084,99.98L113.078,99.991L115.012,99.994L116.887,99.991L120.478,99.968L122.2,99.95L123.875,99.927L127.098,99.872L128.649,99.84L130.163,99.805L133.086,99.729L134.498,99.688L135.879,99.646L137.23,99.602L139.848,99.512L142.362,99.418L143.582,99.37L145.953,99.273L148.238,99.175L150.443,99.076L152.573,98.978L154.633,98.879L157.601,98.734L159.505,98.638L161.354,98.544L164.027,98.405L165.749,98.314L168.246,98.182L170.647,98.053L172.96,97.928L175.191,97.807L177.345,97.69L179.428,97.576L181.444,97.466L183.397,97.359L185.911,97.221L187.732,97.122L190.081,96.993L192.345,96.868L194.531,96.748L196.643,96.631L199.187,96.49L201.15,96.381L203.522,96.248L205.356,96.145L207.576,96.02L209.721,95.898L212.201,95.757L214.196,95.643L216.509,95.51L218.74,95.382L220.894,95.258L222.977,95.139L225.323,95.006L227.266,94.898L229.151,94.794L229.46,94.777L231.877,94.648L233.918,94.543L236.172,94.433L238.348,94.334L240.451,94.246L242.736,94.161L244.941,94.092L247.071,94.039L249.356,94L251.343,93.982L253.69,93.984L255.75,94.009L257.941,94.06L260.247,94.146L262.289,94.251L264.619,94.407L266.696,94.58L268.872,94.798L271.133,95.065L273.316,95.364L275.426,95.692L276.454,95.866L277.61,96.073L279.859,96.508L282.03,96.969L284.258,97.483L286.409,98.016L288.61,98.599L290.736,99.195L292.905,99.834L295.109,100.512L297.344,101.228L299.502,101.941L301.685,102.682L303.796,103.415L306.02,104.201L308.168,104.971L310.416,105.784L312.585,106.574L314.762,107.369L316.942,108.166L319.123,108.96L321.302,109.75L323.477,110.533L323.821,110.656L325.646,111.306L327.871,112.09L330.021,112.838L332.219,113.591L334.401,114.326L336.566,115.043L338.766,115.758L340.945,116.451L343.101,117.123L345.283,117.789L347.486,118.445L349.66,119.078L351.849,119.7L354.049,120.309L356.216,120.894L358.39,121.466L360.567,122.023L362.745,122.566L364.922,123.094L367.129,123.614L369.295,124.11L371.163,124.527L371.485,124.598L373.663,125.069L375.858,125.531L378.037,125.975L380.199,126.404L382.397,126.826L384.572,127.233L386.751,127.627L388.93,128.01L391.106,128.381L393.3,128.744L395.486,129.094L397.662,129.433L399.847,129.762L402.018,130.079L404.193,130.387L406.387,130.689L408.56,130.978L410.747,131.261L412.927,131.533L415.114,131.798L417.289,132.054L418.471,132.189L419.467,132.302L421.658,132.543L423.831,132.776L426.013,133.002L428.2,133.221L430.376,133.433L432.552,133.638L434.737,133.837L436.917,134.03L439.101,134.217L441.285,134.399L443.457,134.573L445.646,134.744L447.827,134.908L450.009,135.068L452.189,135.222L454.365,135.372L456.551,135.517L458.727,135.657L460.908,135.793L463.091,135.925L465.272,136.052L465.783,136.082L467.457,136.176L469.636,136.296L471.814,136.412L474,136.524"></path>
        <path opacity="0.3" stroke="#fde725"
            d="M40,96.155L45.988,96.907L51.455,97.597L56.484,98.232L61.14,98.818L65.475,99.358L69.529,99.857L73.338,100.318L76.929,100.746L80.326,101.143L83.549,101.512L86.614,101.856L89.537,102.176L92.33,102.476L95.004,102.756L97.569,103.02L100.033,103.267L102.404,103.499L104.689,103.718L106.894,103.926L109.024,104.121L111.084,104.307L113.078,104.484L115.012,104.651L116.887,104.811L120.478,105.11L122.2,105.249L123.875,105.383L127.098,105.636L128.649,105.755L130.163,105.87L133.086,106.089L134.498,106.194L135.879,106.295L137.23,106.394L139.848,106.583L142.362,106.762L143.582,106.849L145.953,107.017L148.238,107.178L150.443,107.334L152.573,107.484L154.633,107.63L157.601,107.841L159.505,107.978L161.354,108.111L164.027,108.306L165.749,108.433L168.246,108.62L170.647,108.802L172.96,108.98L175.191,109.155L177.345,109.327L179.428,109.496L181.444,109.662L183.397,109.826L185.911,110.04L187.732,110.199L190.081,110.407L192.345,110.612L194.531,110.813L196.643,111.012L199.187,111.255L201.15,111.446L203.522,111.681L205.356,111.866L207.576,112.093L209.721,112.316L212.201,112.578L214.196,112.792L216.509,113.043L218.74,113.289L220.894,113.529L222.977,113.764L225.323,114.032L227.266,114.255L229.151,114.475L229.46,114.511L231.877,114.795L233.918,115.036L236.172,115.305L238.348,115.567L240.451,115.822L242.736,116.1L244.941,116.37L247.071,116.632L249.356,116.914L251.343,117.161L253.69,117.453L255.75,117.709L257.941,117.983L260.247,118.272L262.289,118.528L264.619,118.821L266.696,119.081L268.872,119.355L271.133,119.639L273.316,119.912L275.426,120.177L276.454,120.306L277.61,120.45L279.859,120.732L282.03,121.002L284.258,121.28L286.409,121.547L288.61,121.819L290.736,122.082L292.905,122.349L295.109,122.619L297.344,122.892L299.502,123.155L301.685,123.419L303.796,123.674L306.02,123.941L308.168,124.197L310.416,124.464L312.585,124.72L314.762,124.976L316.942,125.23L319.123,125.483L321.302,125.734L323.477,125.983L323.821,126.022L325.646,126.229L327.871,126.48L330.021,126.72L332.219,126.964L334.401,127.204L336.566,127.44L338.766,127.678L340.945,127.912L343.101,128.14L345.283,128.37L347.486,128.599L349.66,128.822L351.849,129.045L354.049,129.267L356.216,129.482L358.39,129.696L360.567,129.908L362.745,130.117L364.922,130.323L367.129,130.529L369.295,130.729L371.163,130.899L371.485,130.929L373.663,131.124L375.858,131.318L378.037,131.508L380.199,131.694L382.397,131.88L384.572,132.061L386.751,132.24L388.93,132.415L391.106,132.588L393.3,132.759L395.486,132.926L397.662,133.09L399.847,133.252L402.018,133.41L404.193,133.565L406.387,133.719L408.56,133.868L410.747,134.016L412.927,134.16L415.114,134.302L417.289,134.44L418.471,134.514L419.467,134.576L421.658,134.709L423.831,134.839L426.013,134.967L428.2,135.092L430.376,135.214L432.552,135.334L434.737,135.451L436.917,135.566L439.101,135.678L441.285,135.788L443.457,135.895L445.646,136L447.827,136.102L450.009,136.202L452.189,136.3L454.365,136.395L456.551,136.489L458.727,136.58L460.908,136.668L463.091,136.755L465.272,136.84L465.783,136.859L467.457,136.923L469.636,137.003L471.814,137.082L474,137.158"></path>
    </g>
    <g aria-label="dot" fill="none" stroke-width="1.5" transform="translate(0.5,0.5)">
        <path opacity="0.5" transform="translate(40,97.55285797773286)"
            d="M4.5,0A4.5,4.5,0,1,1,-4.5,0A4.5,4.5,0,1,1,4.5,0" stroke="#440154"></path>
        <path opacity="0.5" transform="translate(40,97.35084807941925)"
            d="M4.5,0A4.5,4.5,0,1,1,-4.5,0A4.5,4.5,0,1,1,4.5,0" stroke="#31688e"></path>
        <path opacity="0.5" transform="translate(40,95.37478370156586)"
            d="M4.5,0A4.5,4.5,0,1,1,-4.5,0A4.5,4.5,0,1,1,4.5,0" stroke="#35b779"></path>
        <path opacity="0.5" transform="translate(40,97.056176330427)"
            d="M4.5,0A4.5,4.5,0,1,1,-4.5,0A4.5,4.5,0,1,1,4.5,0" stroke="#fde725"></path>
        <path opacity="0.5" transform="translate(86.61439130484031,95.90221473922371)"
            d="M4.5,0A4.5,4.5,0,1,1,-4.5,0A4.5,4.5,0,1,1,4.5,0" stroke="#440154"></path>
        <path opacity="0.5" transform="translate(86.61439130484031,98.70421129932865)"
            d="M4.5,0A4.5,4.5,0,1,1,-4.5,0A4.5,4.5,0,1,1,4.5,0" stroke="#31688e"></path>
        <path opacity="0.5" transform="translate(86.61439130484031,99.00047938804587)"
            d="M4.5,0A4.5,4.5,0,1,1,-4.5,0A4.5,4.5,0,1,1,4.5,0" stroke="#35b779"></path>
        <path opacity="0.5" transform="translate(86.61439130484031,99.94603194485647)"
            d="M4.5,0A4.5,4.5,0,1,1,-4.5,0A4.5,4.5,0,1,1,4.5,0" stroke="#fde725"></path>
        <path opacity="0.5" transform="translate(134.498076992833,97.51246890310081)"
            d="M4.5,0A4.5,4.5,0,1,1,-4.5,0A4.5,4.5,0,1,1,4.5,0" stroke="#440154"></path>
        <path opacity="0.5" transform="translate(134.498076992833,96.83230703408661)"
            d="M4.5,0A4.5,4.5,0,1,1,-4.5,0A4.5,4.5,0,1,1,4.5,0" stroke="#31688e"></path>
        <path opacity="0.5" transform="translate(134.498076992833,98.51890370666808)"
            d="M4.5,0A4.5,4.5,0,1,1,-4.5,0A4.5,4.5,0,1,1,4.5,0" stroke="#35b779"></path>
        <path opacity="0.5" transform="translate(134.498076992833,109.08588646216486)"
            d="M4.5,0A4.5,4.5,0,1,1,-4.5,0A4.5,4.5,0,1,1,4.5,0" stroke="#fde725"></path>
        <path opacity="0.5" transform="translate(181.44401489845328,94.74472412962433)"
            d="M4.5,0A4.5,4.5,0,1,1,-4.5,0A4.5,4.5,0,1,1,4.5,0" stroke="#440154"></path>
        <path opacity="0.5" transform="translate(181.44401489845328,94.27845030067262)"
            d="M4.5,0A4.5,4.5,0,1,1,-4.5,0A4.5,4.5,0,1,1,4.5,0" stroke="#31688e"></path>
        <path opacity="0.5" transform="translate(181.44401489845328,99.31071186373593)"
            d="M4.5,0A4.5,4.5,0,1,1,-4.5,0A4.5,4.5,0,1,1,4.5,0" stroke="#35b779"></path>
        <path opacity="0.5" transform="translate(181.44401489845328,109.1120412733271)"
            d="M4.5,0A4.5,4.5,0,1,1,-4.5,0A4.5,4.5,0,1,1,4.5,0" stroke="#fde725"></path>
        <path opacity="0.5" transform="translate(229.15109348477807,79.95207603428496)"
            d="M4.5,0A4.5,4.5,0,1,1,-4.5,0A4.5,4.5,0,1,1,4.5,0" stroke="#440154"></path>
        <path opacity="0.5" transform="translate(229.15109348477807,79.96374709813018)"
            d="M4.5,0A4.5,4.5,0,1,1,-4.5,0A4.5,4.5,0,1,1,4.5,0" stroke="#31688e"></path>
        <path opacity="0.5" transform="translate(229.15109348477807,93.41427625650546)"
            d="M4.5,0A4.5,4.5,0,1,1,-4.5,0A4.5,4.5,0,1,1,4.5,0" stroke="#35b779"></path>
        <path opacity="0.5" transform="translate(229.15109348477807,114.17630841521957)"
            d="M4.5,0A4.5,4.5,0,1,1,-4.5,0A4.5,4.5,0,1,1,4.5,0" stroke="#fde725"></path>
        <path opacity="0.5" transform="translate(276.45437841658577,17.146405398817993)"
            d="M4.5,0A4.5,4.5,0,1,1,-4.5,0A4.5,4.5,0,1,1,4.5,0" stroke="#440154"></path>
        <path opacity="0.5" transform="translate(276.45437841658577,55.18739068019222)"
            d="M4.5,0A4.5,4.5,0,1,1,-4.5,0A4.5,4.5,0,1,1,4.5,0" stroke="#31688e"></path>
        <path opacity="0.5" transform="translate(276.45437841658577,93.39571231117681)"
            d="M4.5,0A4.5,4.5,0,1,1,-4.5,0A4.5,4.5,0,1,1,4.5,0" stroke="#35b779"></path>
        <path opacity="0.5" transform="translate(276.45437841658577,119.58887166091776)"
            d="M4.5,0A4.5,4.5,0,1,1,-4.5,0A4.5,4.5,0,1,1,4.5,0" stroke="#fde725"></path>
        <path opacity="0.5" transform="translate(323.820878523949,66.69289568709026)"
            d="M4.5,0A4.5,4.5,0,1,1,-4.5,0A4.5,4.5,0,1,1,4.5,0" stroke="#440154"></path>
        <path opacity="0.5" transform="translate(323.820878523949,87.92515952680891)"
            d="M4.5,0A4.5,4.5,0,1,1,-4.5,0A4.5,4.5,0,1,1,4.5,0" stroke="#31688e"></path>
        <path opacity="0.5" transform="translate(323.820878523949,107.89152806262419)"
            d="M4.5,0A4.5,4.5,0,1,1,-4.5,0A4.5,4.5,0,1,1,4.5,0" stroke="#35b779"></path>
        <path opacity="0.5" transform="translate(323.820878523949,124.44917675252822)"
            d="M4.5,0A4.5,4.5,0,1,1,-4.5,0A4.5,4.5,0,1,1,4.5,0" stroke="#fde725"></path>
        <path opacity="0.5" transform="translate(371.1626635982108,107.10200719412131)"
            d="M4.5,0A4.5,4.5,0,1,1,-4.5,0A4.5,4.5,0,1,1,4.5,0" stroke="#440154"></path>
        <path opacity="0.5" transform="translate(371.1626635982108,115.69303734896204)"
            d="M4.5,0A4.5,4.5,0,1,1,-4.5,0A4.5,4.5,0,1,1,4.5,0" stroke="#31688e"></path>
        <path opacity="0.5" transform="translate(371.1626635982108,122.40663397375441)"
            d="M4.5,0A4.5,4.5,0,1,1,-4.5,0A4.5,4.5,0,1,1,4.5,0" stroke="#35b779"></path>
        <path opacity="0.5" transform="translate(371.1626635982108,129.53478827408088)"
            d="M4.5,0A4.5,4.5,0,1,1,-4.5,0A4.5,4.5,0,1,1,4.5,0" stroke="#fde725"></path>
        <path opacity="0.5" transform="translate(418.47119192528356,124.55433226771419)"
            d="M4.5,0A4.5,4.5,0,1,1,-4.5,0A4.5,4.5,0,1,1,4.5,0" stroke="#440154"></path>
        <path opacity="0.5" transform="translate(418.47119192528356,128.51969147764964)"
            d="M4.5,0A4.5,4.5,0,1,1,-4.5,0A4.5,4.5,0,1,1,4.5,0" stroke="#31688e"></path>
        <path opacity="0.5" transform="translate(418.47119192528356,130.53379099557137)"
            d="M4.5,0A4.5,4.5,0,1,1,-4.5,0A4.5,4.5,0,1,1,4.5,0" stroke="#35b779"></path>
        <path opacity="0.5" transform="translate(418.47119192528356,133.43813000267957)"
            d="M4.5,0A4.5,4.5,0,1,1,-4.5,0A4.5,4.5,0,1,1,4.5,0" stroke="#fde725"></path>
        <path opacity="0.5" transform="translate(465.7825904833046,131.7715773409823)"
            d="M4.5,0A4.5,4.5,0,1,1,-4.5,0A4.5,4.5,0,1,1,4.5,0" stroke="#440154"></path>
        <path opacity="0.5" transform="translate(465.7825904833046,133.93997009194368)"
            d="M4.5,0A4.5,4.5,0,1,1,-4.5,0A4.5,4.5,0,1,1,4.5,0" stroke="#31688e"></path>
        <path opacity="0.5" transform="translate(465.7825904833046,134.81884742581002)"
            d="M4.5,0A4.5,4.5,0,1,1,-4.5,0A4.5,4.5,0,1,1,4.5,0" stroke="#35b779"></path>
        <path opacity="0.5" transform="translate(465.7825904833046,135.87291398860262)"
            d="M4.5,0A4.5,4.5,0,1,1,-4.5,0A4.5,4.5,0,1,1,4.5,0" stroke="#fde725"></path>
    </g>
</svg>